# 3ds Max Wavefront OBJ Exporter v0.97b - (c)2007 guruware
# File Created: 09.05.2019 17:57:22

mtllib Bashka 2.mtl

#
# object Bashka_2
#

v  24.0543 47.9731 -5.7140
v  24.0543 54.2191 -5.7140
v  24.0543 54.2191 5.7149
v  24.0543 47.9731 5.7149
v  -22.0511 48.8313 3.4308
v  -22.0511 52.6502 3.4308
v  -22.0511 52.6502 -3.4300
v  -22.0511 48.8313 -3.4300
v  -9.6197 40.6593 -9.4504
v  10.1693 40.6593 -9.4504
v  10.1693 40.6593 9.4512
v  -9.6197 40.6593 9.4512
v  13.8975 44.8455 9.3822
v  13.8975 56.8500 9.3822
v  -14.4988 54.9394 9.4512
v  -16.3697 45.0280 9.4512
v  10.1693 59.3501 -6.0828
v  -9.6197 59.3501 -6.0828
v  -9.6197 59.3501 0.0004
v  -9.6197 59.3501 6.0836
v  10.1693 59.3501 6.0836
v  13.8975 56.8500 -9.6415
v  13.8975 44.8455 -9.6415
v  -16.3697 45.0280 -9.4504
v  -14.4988 54.9394 -9.4504
v  -17.4531 54.5466 9.4512
v  -18.0180 45.9313 9.4512
v  -17.4531 54.5466 -9.4504
v  -14.4988 54.9394 0.0004
v  -18.0180 45.9313 -9.4504
v  -19.1839 47.5063 6.0780
v  -19.1839 53.3664 6.0780
v  -19.1839 53.3664 -6.0772
v  -19.1839 47.5063 -6.0772
v  8.0807 41.9269 0.0004
v  8.0807 35.6701 0.0004
v  7.0287 35.6701 -3.9257
v  7.0287 41.9269 -3.9257
v  4.1546 35.6701 -6.7998
v  4.1546 41.9269 -6.7998
v  0.2285 35.6701 -7.8519
v  0.2285 41.9269 -7.3315
v  -3.6976 35.6701 -6.7998
v  -3.6976 41.9269 -6.7998
v  -6.5718 35.6701 -3.9257
v  -6.5718 41.9269 -3.9257
v  -7.6238 35.6701 0.0004
v  -7.6238 41.9269 0.0004
v  -6.5718 35.6701 3.9265
v  -6.5718 41.9269 3.9265
v  -3.6976 35.6701 6.8007
v  -3.6976 41.9269 6.8007
v  0.2285 35.6701 7.8527
v  0.2285 41.9269 7.8527
v  4.1546 35.6701 6.8007
v  4.1546 41.9269 6.8007
v  7.0287 35.6701 3.9265
v  7.0287 41.9269 3.9265
v  23.4338 47.1116 -6.5756
v  23.4338 55.0807 -6.5756
v  23.4338 55.0807 6.5764
v  23.4338 47.1116 6.5764
v  -9.9266 58.4386 5.5706
v  -9.9266 58.4386 0.8393
v  -13.5611 55.1531 0.8393
v  -13.5611 55.1531 8.0792
v  -9.9266 58.4386 -5.5698
v  -13.5611 55.1531 -8.0784
v  -13.5611 55.1531 -0.8385
v  -9.9266 58.4386 -0.8385
v  -10.2420 58.7875 5.5706
v  -13.8765 55.5020 8.0792
v  -10.2420 58.7875 0.8393
v  -13.8765 55.5020 0.8393
v  -10.2420 58.7875 -5.5698
v  -10.2420 58.7875 -0.8385
v  -13.8765 55.5020 -8.0784
v  -13.8765 55.5020 -0.8385
# 78 vertices

vn 1.0000 0.0000 -0.0000
vn -1.0000 0.0000 -0.0000
vn 0.0000 -1.0000 -0.0000
vn 0.1043 0.0000 0.9944
vn 0.1403 0.0000 0.9901
vn 0.0000 0.0000 1.0000
vn 0.0000 1.0000 -0.0000
vn 0.1403 0.0000 -0.9901
vn 0.1043 0.0000 -0.9944
vn 0.0000 0.0000 -1.0000
vn 0.3465 0.9378 -0.0000
vn 0.5569 0.8304 -0.0000
vn 0.7466 -0.6651 -0.0000
vn -0.7695 -0.6383 -0.0000
vn -0.0520 0.7734 0.6317
vn -0.0471 0.7593 0.6489
vn 0.0000 0.6068 0.7948
vn -0.0111 0.6459 0.7634
vn -0.0106 0.7654 -0.6434
vn -0.0427 0.6358 -0.7707
vn -0.0395 0.6500 -0.7589
vn 0.0000 0.8028 -0.5959
vn -0.6270 0.7789 -0.0000
vn -0.1318 0.9913 -0.0000
vn -0.8118 0.0000 0.5839
vn -0.9188 0.0000 0.3941
vn -0.2441 0.9695 -0.0000
vn -0.8118 0.0000 -0.5839
vn -0.9188 0.0000 -0.3941
vn -0.2441 -0.9695 -0.0000
vn -0.6270 -0.7789 -0.0000
vn 0.9658 0.0000 -0.2587
vn 0.7070 0.0000 -0.7070
vn 0.5000 0.0000 -0.8658
vn -0.2587 0.0000 -0.9658
vn -0.7070 0.0000 -0.7070
vn -0.8658 0.0000 -0.5000
vn -0.8658 0.0000 0.5000
vn -0.5000 0.0000 0.8658
vn 0.2587 0.0000 0.9658
vn 0.7070 0.0000 0.7070
vn 0.9658 0.0000 0.2587
vn 0.2886 0.0000 -0.9573
vn 0.1823 0.9831 -0.0000
vn 0.2886 0.0000 0.9573
vn 0.2311 -0.9728 -0.0000
vn 0.8113 0.0000 -0.5842
vn 0.8113 0.5842 -0.0000
vn 0.8113 0.0000 0.5842
vn 0.8113 -0.5842 -0.0000
vn -0.6352 0.0000 0.7721
vn -0.1952 0.9807 -0.0000
vn -0.6352 0.0000 -0.7721
vn -0.1952 -0.9807 -0.0000
vn -0.6704 0.7417 -0.0000
vn -0.6706 0.7418 -0.0000
vn -0.6706 0.7418 0.0000
vn -0.3381 -0.3056 -0.8901
vn -0.7418 -0.6706 -0.0000
vn -0.0000 -0.0000 1.0000
vn 0.7418 0.6706 -0.0000
vn -0.3381 -0.3056 0.8901
# 62 vertex normals

vt 0.3832 0.5273 0.0000
vt 0.4298 0.5273 0.0000
vt 0.4298 0.6131 0.0000
vt 0.3832 0.6131 0.0000
vt 0.4704 0.4118 0.0000
vt 0.4475 0.4118 0.0000
vt 0.4475 0.3657 0.0000
vt 0.4704 0.3657 0.0000
vt 0.5728 0.0010 0.0000
vt 0.7220 0.0010 0.0000
vt 0.7220 0.1436 0.0000
vt 0.5728 0.1436 0.0000
vt 0.7354 0.1797 0.0000
vt 0.7355 0.2703 0.0000
vt 0.5213 0.2561 0.0000
vt 0.5213 0.1928 0.0000
vt 0.7600 0.6112 0.0000
vt 0.9086 0.6101 0.0000
vt 0.9086 0.6562 0.0000
vt 0.9086 0.7024 0.0000
vt 0.7600 0.7013 0.0000
vt 0.4672 0.7440 0.0000
vt 0.4674 0.8345 0.0000
vt 0.2532 0.8220 0.0000
vt 0.2531 0.7587 0.0000
vt 0.7288 0.5836 0.0000
vt 0.7288 0.7289 0.0000
vt 0.7643 0.1436 0.0000
vt 0.7643 0.0010 0.0000
vt 0.5151 0.0010 0.0000
vt 0.5151 0.1436 0.0000
vt 0.9443 0.7449 0.0000
vt 0.5580 0.1484 0.0000
vt 0.7072 0.1482 0.0000
vt 0.4393 0.8661 0.0000
vt 0.2900 0.8663 0.0000
vt 0.9443 0.5675 0.0000
vt 0.4990 0.2438 0.0000
vt 0.5052 0.1990 0.0000
vt 0.3107 0.3478 0.0000
vt 0.3381 0.3478 0.0000
vt 0.3381 0.4903 0.0000
vt 0.3107 0.4191 0.0000
vt 0.3107 0.4903 0.0000
vt 0.2371 0.8158 0.0000
vt 0.2308 0.7710 0.0000
vt 0.9769 0.2954 0.0000
vt 0.9956 0.2954 0.0000
vt 0.9956 0.4379 0.0000
vt 0.9769 0.4379 0.0000
vt 0.1585 0.7849 0.0000
vt 0.1516 0.8175 0.0000
vt 0.1149 0.8056 0.0000
vt 0.1284 0.7752 0.0000
vt 0.1149 0.6631 0.0000
vt 0.1284 0.6935 0.0000
vt 0.1516 0.6512 0.0000
vt 0.1585 0.6838 0.0000
vt 0.9546 0.3258 0.0000
vt 0.9546 0.4075 0.0000
vt 0.9958 0.8733 0.0000
vt 0.9486 0.8733 0.0000
vt 0.9486 0.8426 0.0000
vt 0.9958 0.8426 0.0000
vt 0.9486 0.8119 0.0000
vt 0.9958 0.8119 0.0000
vt 0.9486 0.7813 0.0000
vt 0.9958 0.7813 0.0000
vt 0.9486 0.7506 0.0000
vt 0.9958 0.7506 0.0000
vt 0.9486 0.7200 0.0000
vt 0.9958 0.7200 0.0000
vt 0.9486 0.6893 0.0000
vt 0.9958 0.6893 0.0000
vt 0.9486 0.6587 0.0000
vt 0.9958 0.6587 0.0000
vt 0.9486 0.6280 0.0000
vt 0.9958 0.6280 0.0000
vt 0.9958 0.9959 0.0000
vt 0.9486 0.9959 0.0000
vt 0.9486 0.9652 0.0000
vt 0.9958 0.9652 0.0000
vt 0.9486 0.9346 0.0000
vt 0.9958 0.9346 0.0000
vt 0.9486 0.9039 0.0000
vt 0.9958 0.9039 0.0000
vt 0.2530 0.5542 0.0000
vt 0.3635 0.5246 0.0000
vt 0.3715 0.5542 0.0000
vt 0.4582 0.6842 0.0000
vt 0.3693 0.7355 0.0000
vt 0.3477 0.7138 0.0000
vt 0.2304 0.0157 0.0000
vt 0.3060 0.0010 0.0000
vt 0.3031 0.0915 0.0000
vt 0.2285 0.0758 0.0000
vt 0.2353 0.2169 0.0000
vt 0.1813 0.1630 0.0000
vt 0.1320 0.1974 0.0000
vt 0.1610 0.2688 0.0000
vt 0.0192 0.2830 0.0000
vt 0.0333 0.2073 0.0000
vt 0.3760 0.5202 0.0000
vt 0.4370 0.5202 0.0000
vt 0.4370 0.6202 0.0000
vt 0.3760 0.6202 0.0000
vt 0.4747 0.4398 0.0000
vt 0.4431 0.4398 0.0000
vt 0.4254 0.4296 0.0000
vt 0.4254 0.3479 0.0000
vt 0.4431 0.3377 0.0000
vt 0.4747 0.3377 0.0000
vt 0.4924 0.3479 0.0000
vt 0.4924 0.4296 0.0000
vt 0.2611 0.4649 0.0000
vt 0.2611 0.4191 0.0000
vt 0.3477 0.6546 0.0000
vt 0.3693 0.6329 0.0000
vt 0.3397 0.6842 0.0000
vt 0.3989 0.7435 0.0000
vt 0.3990 0.6250 0.0000
vt 0.4502 0.7138 0.0000
vt 0.4286 0.7355 0.0000
vt 0.4286 0.6329 0.0000
vt 0.4502 0.6546 0.0000
vt 0.3635 0.5838 0.0000
vt 0.3418 0.5029 0.0000
vt 0.3419 0.6055 0.0000
vt 0.3122 0.4950 0.0000
vt 0.3122 0.6134 0.0000
vt 0.2610 0.5246 0.0000
vt 0.2826 0.5029 0.0000
vt 0.2826 0.6055 0.0000
vt 0.2610 0.5838 0.0000
vt 0.2611 0.3732 0.0000
# 135 texture coords

g Bashka_2
usemtl 0_wire_086086086
s 1
f 1/1/1 2/2/1 3/3/1 4/4/1 
s 2
f 5/5/2 6/6/2 7/7/2 8/8/2 
s 4
f 9/9/3 10/10/3 11/11/3 12/12/3 
s 1
f 13/13/4 14/14/5 15/15/6 16/16/6 
f 17/17/7 18/18/7 19/19/7 20/20/7 
f 17/17/7 20/20/7 21/21/7 
f 22/22/8 23/23/9 24/24/10 25/25/10 
f 22/26/11 17/17/12 21/21/12 14/27/11 
f 13/28/13 11/11/13 10/10/13 23/29/13 
s 4
f 24/30/14 9/9/14 12/12/14 16/31/14 
s 1
f 14/27/15 21/21/16 20/20/17 15/32/18 
f 13/13/4 16/16/6 12/33/6 11/34/6 
f 23/23/9 10/35/10 9/36/10 24/24/10 
f 22/26/19 25/37/20 18/18/21 17/17/22 
f 15/15/6 26/38/6 16/16/6 
f 27/39/6 16/16/6 26/38/6 
f 25/40/7 28/41/7 26/42/23 29/43/24 
f 26/42/23 15/44/23 29/43/24 
f 24/24/10 30/45/10 25/25/10 
f 28/46/10 25/25/10 30/45/10 
s 4
f 30/47/3 24/48/3 16/49/3 27/50/3 
f 31/51/25 27/52/26 26/53/26 32/54/25 
s 1
f 32/54/27 26/53/23 28/55/23 33/56/27 
s 4
f 33/56/28 28/55/29 30/57/29 34/58/28 
f 34/59/30 30/47/31 27/50/31 31/60/30 
s 1
f 35/61/32 36/62/32 37/63/32 38/64/32 
f 38/64/33 37/63/33 39/65/34 40/66/34 
f 40/66/34 39/65/34 41/67/10 42/68/10 
f 42/68/10 41/67/10 43/69/35 44/70/35 
f 44/70/36 43/69/36 45/71/37 46/72/37 
f 46/72/37 45/71/37 47/73/2 48/74/2 
f 48/74/2 47/73/2 49/75/38 50/76/38 
f 50/76/38 49/75/38 51/77/39 52/78/39 
f 52/79/39 51/80/39 53/81/6 54/82/6 
f 54/82/6 53/81/6 55/83/40 56/84/40 
f 56/84/41 55/83/41 57/85/41 58/86/41 
f 58/86/42 57/85/42 36/62/42 35/61/42 
s 2
f 47/87/3 37/88/3 36/89/3 
f 48/90/7 56/91/7 58/92/7 
s 1
f 59/93/43 23/94/9 22/95/8 60/96/43 
f 60/96/44 22/95/11 14/97/11 61/98/44 
f 62/99/45 61/98/45 14/97/5 13/100/4 
f 62/99/46 13/100/46 23/101/46 59/102/46 
f 2/2/47 1/1/47 59/103/47 60/104/47 
f 3/3/48 2/2/48 60/104/48 61/105/48 
f 4/4/49 3/3/49 61/105/49 62/106/49 
f 1/1/50 4/4/50 62/106/50 59/103/50 
s 4
f 5/5/51 31/107/25 32/108/25 6/6/51 
s 1
f 6/6/52 32/109/27 33/110/27 7/7/52 
s 4
f 7/7/53 33/111/28 34/112/28 8/8/53 
f 8/8/54 34/113/30 31/114/30 5/5/54 
s 1
f 63/115/55 64/116/55 65/43/55 66/44/55 
s 2
f 38/117/7 40/118/7 48/90/7 
f 48/90/7 35/119/7 38/117/7 
f 58/92/7 35/119/7 48/90/7 
f 48/90/7 54/120/7 56/91/7 
f 40/118/7 42/121/7 48/90/7 
f 48/90/7 50/122/7 52/123/7 54/120/7 
f 42/121/7 44/124/7 46/125/7 48/90/7 
f 36/89/3 57/126/3 47/87/3 
f 47/87/3 39/127/3 37/88/3 
f 57/126/3 55/128/3 47/87/3 
f 47/87/3 41/129/3 39/127/3 
f 55/128/3 53/130/3 47/87/3 
f 47/87/3 45/131/3 43/132/3 41/129/3 
f 53/130/3 51/133/3 49/134/3 47/87/3 
s 1
f 67/135/56 68/40/56 69/43/56 70/116/56 
s off
f 15/44/57 20/115/57 71/115/57 72/44/57 
f 20/115/56 19/116/56 73/116/56 71/115/56 
f 19/116/56 29/43/56 74/43/56 73/116/56 
f 29/43/56 15/44/56 72/44/56 74/43/56 
f 19/116/56 18/135/56 75/135/56 76/116/56 
f 18/135/56 25/40/56 77/40/56 75/135/56 
f 25/40/56 29/43/56 78/43/56 77/40/56 
f 29/43/57 19/116/57 76/116/57 78/43/57 
f 72/44/58 71/115/58 63/115/58 66/44/58 
f 71/115/59 73/116/59 64/116/59 63/115/59 
f 73/116/60 74/43/60 65/43/60 64/116/60 
f 74/43/61 72/44/61 66/44/61 65/43/61 
f 76/116/59 75/135/59 67/135/59 70/116/59 
f 75/135/62 77/40/62 68/40/62 67/135/62 
f 77/40/61 78/43/61 69/43/61 68/40/61 
f 78/43/10 76/116/10 70/116/10 69/43/10 
# 65 polygons - 18 triangles

