# 3ds Max Wavefront OBJ Exporter v0.97b - (c)2007 guruware
# File Created: 09.05.2019 17:57:48

mtllib Bronya 1.mtl

#
# object Bronya_1
#

v  -13.9427 54.9438 9.5618
v  -13.9427 54.9438 13.6868
v  -13.9464 46.5379 13.6868
v  -13.9464 46.5379 9.5618
v  -13.3939 54.9438 19.5809
v  -14.4895 54.9438 13.6868
v  -14.4931 46.5379 13.6868
v  -13.3975 46.5379 19.5809
v  -9.0626 40.6617 13.6860
v  -9.6093 40.6617 13.6860
v  -9.6093 40.6617 9.5618
v  -9.0626 40.6617 9.5618
v  -12.8472 54.9438 19.5809
v  -12.8508 46.5379 19.5809
v  -9.5644 59.3288 13.6833
v  -10.1112 59.3288 13.6833
v  -9.0156 59.3288 15.6009
v  -8.4689 59.3288 15.6009
v  -14.4931 46.5379 9.5618
v  -14.4895 54.9438 9.5618
v  -9.5644 59.3288 7.0472
v  -7.9670 40.6617 18.0846
v  -8.5137 40.6617 18.0846
v  -10.1112 59.3288 7.0472
v  -13.9464 46.5379 -13.6871
v  -13.9427 54.9438 -13.6871
v  -13.9427 54.9438 -9.5621
v  -13.9464 46.5379 -9.5621
v  -14.4931 46.5379 -13.6871
v  -14.4895 54.9438 -13.6871
v  -13.3939 54.9438 -19.5812
v  -13.3975 46.5379 -19.5812
v  -9.6093 40.6617 -9.5621
v  -9.6093 40.6617 -13.6863
v  -9.0626 40.6617 -13.6863
v  -9.0626 40.6617 -9.5621
v  -12.8472 54.9438 -19.5812
v  -12.8508 46.5379 -19.5812
v  -9.0156 59.3288 -15.6013
v  -10.1112 59.3288 -13.6837
v  -9.5644 59.3288 -13.6837
v  -8.4689 59.3288 -15.6013
v  -14.4895 54.9438 -9.5621
v  -14.4931 46.5379 -9.5621
v  -9.5644 59.3288 -7.0476
v  -7.9670 40.6617 -18.0849
v  -8.5137 40.6617 -18.0849
v  -10.1112 59.3288 -7.0476
# 48 vertices

vn 0.9057 -0.4239 0.0000
vn 0.9174 -0.3865 -0.0950
vn 0.9376 0.3363 -0.0888
vn 0.9406 0.3396 0.0000
vn -0.9222 0.3466 0.1714
vn -0.9174 0.3865 0.0950
vn -0.9376 -0.3363 0.0888
vn -0.9246 -0.3400 0.1719
vn 0.0000 -1.0000 0.0000
vn -0.0000 0.4201 0.9075
vn -0.0000 0.2673 0.9636
vn -0.0000 -0.0901 0.9959
vn -0.0000 -0.1464 0.9892
vn -0.0000 1.0000 -0.0000
vn 0.0000 0.0000 -1.0000
vn 0.0000 -0.1811 -0.9835
vn 0.0000 -0.3047 -0.9524
vn 0.7077 -0.7066 0.0000
vn 0.6917 -0.6908 -0.2103
vn 0.7508 0.6390 -0.1670
vn 0.7653 0.6360 -0.0989
vn 0.9246 0.3400 -0.1719
vn -0.6573 0.7089 0.2556
vn -0.6917 0.6908 0.2103
vn -0.9406 -0.3396 -0.0000
vn -0.7691 -0.6392 -0.0000
vn -0.7653 -0.6360 0.0989
vn 0.0000 0.6721 0.7405
vn -0.0000 -0.2468 0.9691
vn 0.0000 -0.4975 -0.8675
vn 0.9376 0.3363 0.0888
vn 0.9174 -0.3865 0.0950
vn -0.9376 -0.3363 -0.0888
vn -0.9174 0.3865 -0.0950
vn -0.9222 0.3466 -0.1714
vn -0.9246 -0.3400 -0.1719
vn 0.0000 0.4201 -0.9075
vn 0.0000 -0.1464 -0.9892
vn 0.0000 -0.0901 -0.9959
vn 0.0000 0.2673 -0.9636
vn -0.0000 0.0000 1.0000
vn -0.0000 -0.3047 0.9524
vn -0.0000 -0.1811 0.9835
vn 0.6917 -0.6908 0.2103
vn 0.7653 0.6360 0.0989
vn 0.7508 0.6390 0.1670
vn 0.9246 0.3400 0.1719
vn -0.6917 0.6908 -0.2103
vn -0.6573 0.7089 -0.2556
vn -0.7653 -0.6360 -0.0989
vn -0.0000 0.6721 -0.7405
vn 0.0000 -0.2468 -0.9691
vn -0.0000 -0.4975 0.8675
vn 0.9222 -0.3466 -0.1714
vn -0.9057 0.4239 -0.0000
vn 0.6573 -0.7089 -0.2556
vn 0.7691 0.6392 0.0000
vn -0.7077 0.7066 -0.0000
vn -0.7508 -0.6390 0.1670
vn 0.9222 -0.3466 0.1714
vn 0.6573 -0.7089 0.2556
vn -0.7508 -0.6390 -0.1670
# 62 vertex normals

vt 1.0000 0.6642 0.0000
vt 0.5000 0.6642 0.0000
vt 0.5000 0.3358 0.0000
vt 1.0000 0.3358 0.0000
vt 0.5000 0.0000 0.0000
vt 0.5000 1.0000 0.0000
vt 0.0000 1.0000 0.0000
vt 0.0000 0.0000 0.0000
vt 0.6642 0.0000 0.0000
vt 0.6642 1.0000 0.0000
vt 0.3358 1.0000 0.0000
vt 0.3358 0.0000 0.0000
vt 1.0000 1.0000 0.0000
vt 0.0000 0.3358 0.0000
vt 1.0000 0.0000 0.0000
vt 0.0000 0.6642 0.0000
# 16 texture coords

g Bronya_1
usemtl 0_wire_086086086
s 2
f 1/1/1 2/2/2 3/3/3 4/4/4 
s 4
f 5/1/5 6/2/6 7/3/7 8/4/8 
s 8
f 9/5/9 10/6/9 11/7/9 12/8/9 
s 16
f 13/9/10 5/10/11 8/11/12 14/12/13 
s 32
f 15/5/14 16/6/14 17/7/14 18/8/14 
s 64
f 4/9/15 19/10/15 20/11/16 1/12/17 
s 2
f 1/1/1 21/13/18 15/6/19 2/2/2 
f 22/8/20 9/5/21 3/3/3 14/14/22 
s 4
f 17/13/23 16/6/24 6/2/6 5/1/5 
f 19/14/25 11/8/26 10/5/27 7/3/7 
s 16
f 18/15/28 17/13/28 5/10/11 13/9/10 
f 23/7/29 22/8/29 14/12/13 8/11/12 
s 64
f 12/15/15 11/13/15 19/10/15 4/9/15 
f 24/7/30 21/8/30 1/12/17 20/11/16 
s 2
f 25/3/31 26/2/32 27/1/1 28/4/4 
s 4
f 29/3/33 30/2/34 31/1/35 32/4/36 
s 8
f 33/7/9 34/6/9 35/5/9 36/8/9 
s 16
f 37/9/37 38/12/38 32/11/39 31/10/40 
s 32
f 39/7/14 40/6/14 41/5/14 42/8/14 
s 64
f 28/9/41 27/12/42 43/11/43 44/10/41 
s 2
f 27/1/1 26/2/32 41/6/44 45/13/18 
f 25/3/31 35/5/45 46/8/46 38/14/47 
s 4
f 30/2/34 40/6/48 39/13/49 31/1/35 
f 44/14/25 29/3/33 34/5/50 33/8/26 
s 16
f 42/15/51 37/9/37 31/10/40 39/13/51 
f 47/7/52 32/11/39 38/12/38 46/8/52 
s 64
f 36/15/41 28/9/41 44/10/41 33/13/41 
f 48/7/53 43/11/43 27/12/42 45/8/53 
s 2
f 13/16/54 14/14/22 3/3/3 2/2/2 
s 4
f 20/16/55 19/14/25 7/3/7 6/2/6 
s 8
f 22/15/9 23/13/9 10/6/9 9/5/9 
s 32
f 21/15/14 24/13/14 16/6/14 15/5/14 
s 2
f 18/7/56 13/16/54 2/2/2 15/6/19 
f 9/5/21 12/15/57 4/4/4 3/3/3 
s 4
f 16/6/24 24/7/58 20/16/55 6/2/6 
f 23/15/59 8/4/8 7/3/7 10/5/27 
s 2
f 38/14/47 37/16/60 26/2/32 25/3/31 
s 4
f 44/14/25 43/16/55 30/2/34 29/3/33 
s 8
f 47/13/9 46/15/9 35/5/9 34/6/9 
s 32
f 48/13/14 45/15/14 41/5/14 40/6/14 
s 2
f 26/2/32 37/16/60 42/7/61 41/6/44 
f 28/4/4 36/15/57 35/5/45 25/3/31 
s 4
f 43/16/55 48/7/58 40/6/48 30/2/34 
f 29/3/33 32/4/36 47/15/62 34/5/50 
# 44 polygons

