# 3ds Max Wavefront OBJ Exporter v0.97b - (c)2007 guruware
# File Created: 09.05.2019 17:58:23

mtllib Bronya 3.mtl

#
# object Bronya_3
#

v  -18.8608 47.6847 -17.5305
v  -18.8848 47.6847 -14.4036
v  -18.8848 49.2581 -14.4073
v  -18.8607 49.2607 -17.5305
v  -15.6201 39.5952 -21.0509
v  -15.6201 39.5952 -10.5483
v  -14.8205 43.8699 -10.5483
v  -14.7378 43.8699 -21.3138
v  -14.5105 43.9829 -10.5483
v  -14.4201 43.9588 -21.3138
v  -14.4295 52.5538 -21.3138
v  -14.5174 52.9398 -10.5701
v  -14.9328 39.4205 -21.0509
v  -14.9328 39.4205 -10.5483
v  -5.1669 53.4532 -31.0949
v  -4.9399 42.3032 -30.7501
v  -5.1106 42.3308 -31.0624
v  -5.3494 53.9014 -31.3768
v  -14.8206 53.0698 -10.5701
v  -5.2329 37.6053 -24.3213
v  -5.3661 37.4257 -24.5716
v  1.4475 63.2362 -10.6457
v  1.6707 62.5191 -10.6457
v  1.6852 62.3375 -21.4724
v  1.4552 62.9820 -21.4724
v  -14.7568 58.6895 -17.5818
v  -14.7471 58.6500 -14.4331
v  -13.4276 59.9642 -14.4352
v  -13.3913 59.8531 -17.5985
v  -3.5196 60.0478 -22.9274
v  -3.6606 60.6695 -23.1368
v  -7.5957 58.7163 -21.4042
v  -7.6102 59.3720 -10.5774
v  -7.8334 59.6150 -10.5774
v  -18.8691 47.6961 17.5305
v  -18.8673 49.2370 17.5305
v  -18.8930 49.2370 14.3854
v  -18.8905 47.6939 14.3817
v  -14.7619 58.6293 14.4124
v  -14.7742 58.6677 17.4416
v  -13.3806 59.8588 17.3895
v  -13.4160 59.9739 14.4131
v  -14.8247 43.8773 10.5272
v  -15.6196 39.5935 10.5272
v  -15.6190 39.5917 21.0517
v  -14.7461 43.8848 21.3146
v  -14.4377 52.3382 21.3146
v  -14.4283 43.9737 21.3146
v  -14.5147 43.9903 10.5272
v  -14.5273 52.9186 10.5491
v  -7.5967 58.5263 21.0517
v  -7.5967 59.3944 10.5491
v  -14.9317 39.4170 21.0517
v  -14.9323 39.4188 10.5272
v  -5.0930 42.3632 31.0960
v  -4.9224 42.3335 30.7842
v  -5.0442 53.3432 31.0346
v  -5.2252 53.9810 31.3183
v  -14.8288 53.0528 10.5491
v  -3.5807 59.8854 22.4918
v  -3.7148 60.7056 22.6967
v  1.4475 63.1302 21.1587
v  1.6683 62.2877 21.1587
v  1.6683 62.6815 10.6561
v  1.4475 63.4009 10.6561
v  -7.8175 59.6396 10.5491
v  -5.3872 37.4139 24.6250
v  -5.2524 37.5914 24.3741
v  -14.1393 48.6193 16.8300
v  -14.1393 48.6193 -16.9470
v  -14.1393 52.0987 -16.9470
v  -14.1393 52.0987 16.8300
v  -14.4950 52.0987 -16.9470
v  -14.4950 48.6193 -16.9470
v  -14.4950 48.6193 16.8300
v  -14.4950 52.0987 16.8300
v  -14.7379 53.0789 -21.3138
v  -7.8257 59.3608 -21.4042
v  -14.7461 53.0528 21.3146
v  -7.8175 59.3688 21.0517
v  6.0266 64.0286 2.8650
v  6.0289 63.8662 -2.8748
v  5.8057 64.5832 -2.8748
v  5.8058 64.7480 2.8650
v  -14.7497 51.5438 -19.7801
v  -14.8088 51.5373 -12.1002
v  -14.7496 45.4037 -19.7801
v  -14.8087 45.4037 -12.0857
v  -8.9472 58.3493 -19.8557
v  -8.9663 58.5460 -12.1100
v  -13.6293 54.1252 -19.7949
v  -13.6748 54.1039 -12.1048
v  -14.8135 45.4122 12.0646
v  -14.8170 51.5190 12.0792
v  -14.7580 45.4175 19.7809
v  -14.7572 51.5190 19.7809
v  -8.9507 58.5660 12.0829
v  -8.9364 58.3578 19.5596
v  -13.6842 54.0869 12.0826
v  -13.6397 54.1023 19.7377
v  -17.1701 51.5438 -19.7987
v  -17.2292 51.5373 -12.1188
v  -17.1700 45.4036 -19.7987
v  -17.2291 45.4036 -12.1043
v  -10.5887 60.1279 -19.8828
v  -10.6079 60.3245 -12.1371
v  -15.2708 55.9038 -19.8220
v  -15.3163 55.8825 -12.1319
v  -17.2339 45.4116 12.0827
v  -17.2374 51.5184 12.0973
v  -17.1783 45.4170 19.7990
v  -17.1776 51.5184 19.7990
v  -10.5944 60.3424 12.1119
v  -10.5802 60.1343 19.5886
v  -15.3279 55.8633 12.1117
v  -15.2834 55.8788 19.7667
# 116 vertices

vn -1.0000 -0.0000 -0.0077
vn -0.9812 0.1929 -0.0038
vn 1.0000 0.0009 0.0083
vn 0.9948 -0.1021 0.0043
vn 0.8606 0.0029 -0.5092
vn 0.0001 0.0024 1.0000
vn -0.2463 -0.9692 -0.0000
vn 0.8224 -0.4727 -0.3165
vn 0.9488 0.3158 -0.0054
vn -0.6782 0.7348 -0.0112
vn 0.9406 0.1431 -0.3078
vn 0.6753 -0.7365 0.0388
vn 0.0005 0.0006 1.0000
vn -1.0000 -0.0002 0.0075
vn -0.6791 0.7339 0.0120
vn -0.9816 0.1908 0.0036
vn 1.0000 0.0013 -0.0081
vn 0.6754 -0.7356 -0.0529
vn 0.9950 -0.1003 -0.0041
vn 0.8606 -0.0010 0.5092
vn 0.0001 0.0024 -1.0000
vn 0.9583 0.1203 0.2590
vn 0.9622 0.2720 0.0086
vn 0.0000 0.0000 -1.0000
vn -0.2463 -0.9692 -0.0001
vn 0.8189 -0.4770 0.3192
vn 1.0000 0.0000 -0.0000
vn -1.0000 0.0000 -0.0000
vn 0.0000 -1.0000 -0.0000
vn 0.0000 0.0000 1.0000
vn 0.0000 1.0000 -0.0000
vn -0.7217 -0.0188 -0.6920
vn -0.5434 0.6722 -0.5029
vn 0.2899 0.2382 0.9269
vn 0.5388 -0.6763 0.5023
vn 0.7161 0.0208 0.6976
vn 0.5468 0.4594 0.6999
vn -0.0866 -0.9492 0.3025
vn -0.5526 -0.4484 -0.7026
vn -0.7182 -0.0120 0.6957
vn -0.5552 -0.4428 0.7040
vn -0.0878 -0.9504 -0.2983
vn 0.5496 0.4540 -0.7013
vn 0.7126 0.0139 -0.7014
vn 0.5319 -0.6882 -0.4933
vn 0.2970 0.1790 -0.9380
vn -0.5364 0.6840 0.4944
vn -0.0065 -0.0023 -1.0000
vn -0.3635 0.9313 -0.0221
vn 0.3426 -0.9388 0.0368
vn -0.3763 0.9262 0.0239
vn -0.0104 -0.0027 0.9999
vn 0.3555 -0.9330 -0.0561
vn 0.3307 -0.9437 0.0055
vn 0.3211 -0.9470 0.0008
vn 0.3248 -0.9458 0.0026
vn 0.3343 -0.9424 0.0072
vn -0.7431 -0.6692 0.0012
vn -0.7363 -0.6766 0.0013
vn -0.7364 -0.6765 0.0013
vn -0.7431 -0.6691 0.0012
vn -0.3726 0.9280 -0.0026
vn -0.3635 0.9316 -0.0072
vn -0.3671 0.9302 -0.0054
vn -0.3761 0.9266 -0.0008
vn 0.9559 0.2937 -0.0084
vn 0.9548 0.2972 -0.0080
vn 0.9549 0.2969 -0.0081
vn 0.9560 0.2934 -0.0084
vn -0.9831 0.1832 -0.0001
vn 0.9958 -0.0916 0.0001
vn -0.3425 0.9395 -0.0004
vn -0.6781 0.7347 -0.0188
vn -0.6715 0.7409 -0.0112
vn -0.6782 0.7349 -0.0035
vn -0.6847 0.7288 -0.0111
vn -1.0000 -0.0005 0.0075
vn -1.0000 -0.0002 0.0072
vn -1.0000 0.0000 0.0075
vn -1.0000 -0.0002 0.0077
vn -0.6789 0.7339 0.0201
vn -0.6857 0.7278 0.0119
vn -0.6792 0.7339 0.0041
vn -0.6723 0.7402 0.0120
vn -0.0000 1.0000 0.0008
vn 0.0077 0.0000 -1.0000
vn 0.0000 -1.0000 0.0000
vn -0.0077 0.0024 1.0000
vn 0.7349 0.6780 -0.0154
vn 0.0004 -0.0148 -0.9999
vn -0.7348 -0.6783 -0.0062
vn -0.0071 0.0087 0.9999
vn -0.0075 0.0024 -1.0000
vn 0.0002 -1.0000 0.0007
vn 0.0075 0.0000 1.0000
vn -0.0002 1.0000 0.0000
vn 0.7340 0.6789 0.0175
vn -0.0082 0.0087 -0.9999
vn -0.7339 -0.6792 0.0056
vn 0.0286 0.0102 0.9995
vn -0.8063 0.5915 -0.0057
vn -0.8018 -0.0000 -0.5977
vn -0.8063 -0.5915 -0.0062
vn -0.8109 0.0014 0.5852
vn -0.1121 0.9933 -0.0286
vn -0.5362 0.5932 -0.6005
vn -0.9815 0.1914 -0.0022
vn -0.5610 0.5883 0.5824
vn -0.8107 0.0008 -0.5854
vn -0.8062 -0.5917 0.0061
vn -0.8019 0.0003 0.5975
vn -0.8064 0.5913 0.0064
vn -0.1132 0.9931 0.0312
vn -0.5626 0.5874 -0.5818
vn -0.9818 0.1900 0.0020
vn -0.5199 0.6073 0.6007
vn 0.8234 0.2563 -0.5062
vn -0.2953 0.9553 -0.0116
vn 0.8250 0.2532 0.5053
vn 0.2953 -0.9553 0.0115
# 120 vertex normals

vt 0.1594 0.0021 0.0000
vt 0.1594 0.0833 0.0000
vt 0.0900 0.0831 0.0000
vt 0.0899 0.0021 0.0000
vt 0.2011 0.0038 0.0000
vt 0.2015 0.0831 0.0000
vt 0.5850 0.3596 0.0000
vt 0.5835 0.2784 0.0000
vt 0.6483 0.2773 0.0000
vt 0.6526 0.3583 0.0000
vt 0.5428 0.2808 0.0000
vt 0.5437 0.3600 0.0000
vt 0.6144 0.8945 0.0000
vt 0.5303 0.8908 0.0000
vt 0.5307 0.8881 0.0000
vt 0.6179 0.8923 0.0000
vt 0.6536 0.3606 0.0000
vt 0.5842 0.3619 0.0000
vt 0.5412 0.3601 0.0000
vt 0.5403 0.2809 0.0000
vt 0.4812 0.9254 0.0000
vt 0.4804 0.9231 0.0000
vt 0.5309 0.8882 0.0000
vt 0.7247 0.3558 0.0000
vt 0.7223 0.3559 0.0000
vt 0.7177 0.2743 0.0000
vt 0.7228 0.2742 0.0000
vt 0.0192 0.0827 0.0000
vt 0.0195 0.0010 0.0000
vt 0.6831 0.9357 0.0000
vt 0.6167 0.8910 0.0000
vt 0.6869 0.9323 0.0000
vt 0.7224 0.3584 0.0000
vt 0.6516 0.3606 0.0000
vt 0.6816 0.7496 0.0000
vt 0.6124 0.7495 0.0000
vt 0.6125 0.6683 0.0000
vt 0.6816 0.6684 0.0000
vt 0.5417 0.7479 0.0000
vt 0.5413 0.6687 0.0000
vt 0.7239 0.6686 0.0000
vt 0.7235 0.7478 0.0000
vt 0.1479 0.6150 0.0000
vt 0.0849 0.6148 0.0000
vt 0.0853 0.5336 0.0000
vt 0.1526 0.5338 0.0000
vt 0.2175 0.6149 0.0000
vt 0.2227 0.5357 0.0000
vt 0.0440 0.6129 0.0000
vt 0.0438 0.5337 0.0000
vt 0.3538 0.1438 0.0000
vt 0.3534 0.1411 0.0000
vt 0.4363 0.1365 0.0000
vt 0.4413 0.1386 0.0000
vt 0.1536 0.5316 0.0000
vt 0.0844 0.5313 0.0000
vt 0.4401 0.1404 0.0000
vt 0.5049 0.0918 0.0000
vt 0.5102 0.0956 0.0000
vt 0.2240 0.6150 0.0000
vt 0.2250 0.5358 0.0000
vt 0.2228 0.5333 0.0000
vt 0.1516 0.5315 0.0000
vt 0.0413 0.5337 0.0000
vt 0.0415 0.6130 0.0000
vt 0.3030 0.1093 0.0000
vt 0.3038 0.1069 0.0000
vt 0.3540 0.1437 0.0000
vt 0.1955 0.8785 0.0000
vt 0.1942 0.6237 0.0000
vt 0.2204 0.6236 0.0000
vt 0.2218 0.8783 0.0000
vt 0.1633 0.6239 0.0000
vt 0.1895 0.6237 0.0000
vt 0.1909 0.8785 0.0000
vt 0.1647 0.8786 0.0000
vt 0.1956 0.8831 0.0000
vt 0.2218 0.8829 0.0000
vt 0.2264 0.8783 0.0000
vt 0.2250 0.6235 0.0000
vt 0.2204 0.6190 0.0000
vt 0.1941 0.6191 0.0000
vt 0.8580 0.4287 0.0000
vt 0.9453 0.4264 0.0000
vt 0.9370 0.5300 0.0000
vt 0.8676 0.5322 0.0000
vt 0.8055 0.4991 0.0000
vt 0.7873 0.4689 0.0000
vt 0.6877 0.9376 0.0000
vt 0.6679 0.9670 0.0000
vt 0.6638 0.9639 0.0000
vt 0.6022 0.9956 0.0000
vt 0.5375 0.9921 0.0000
vt 0.5011 0.9740 0.0000
vt 0.4788 0.9259 0.0000
vt 0.4995 0.9758 0.0000
vt 0.9951 0.4623 0.0000
vt 0.9748 0.5123 0.0000
vt 0.5587 0.8830 0.0000
vt 0.5702 0.7792 0.0000
vt 0.6392 0.7822 0.0000
vt 0.6462 0.8863 0.0000
vt 0.6965 0.8509 0.0000
vt 0.6770 0.8004 0.0000
vt 0.3014 0.1066 0.0000
vt 0.3213 0.0562 0.0000
vt 0.3229 0.0580 0.0000
vt 0.3593 0.0393 0.0000
vt 0.4222 0.0353 0.0000
vt 0.4852 0.0645 0.0000
vt 0.4908 0.0610 0.0000
vt 0.5109 0.0894 0.0000
vt 0.4879 0.8392 0.0000
vt 0.5066 0.8100 0.0000
vt 0.5859 0.3619 0.0000
vt 0.5438 0.3625 0.0000
# 116 texture coords

g Bronya_3
usemtl 0_wire_086086086
s off
f 1/1/1 2/2/1 3/3/1 4/4/1 
f 5/5/2 6/6/2 7/2/2 8/1/2 
f 9/7/3 10/8/3 11/9/3 12/10/3 
f 13/11/4 10/8/4 9/7/4 14/12/4 
f 15/13/5 16/14/5 17/15/5 18/16/5 
f 9/7/6 12/10/6 19/17/6 7/18/6 
f 13/11/7 14/12/7 6/19/7 5/20/7 
f 16/14/8 20/21/8 21/22/8 17/23/8 
f 22/24/9 23/25/9 24/26/9 25/27/9 
f 26/4/10 27/3/10 28/28/10 29/29/10 
f 30/30/11 15/13/11 18/31/11 31/32/11 
f 12/10/12 11/9/12 32/26/12 33/25/12 
f 34/33/13 19/34/13 12/10/13 33/25/13 
f 35/35/14 36/36/14 37/37/14 38/38/14 
f 39/37/15 40/36/15 41/39/15 42/40/15 
f 43/38/16 44/41/16 45/42/16 46/35/16 
f 47/43/17 48/44/17 49/45/17 50/46/17 
f 51/47/18 47/43/18 50/46/18 52/48/18 
f 49/45/19 48/44/19 53/49/19 54/50/19 
f 55/51/20 56/52/20 57/53/20 58/54/20 
f 59/55/21 50/46/21 49/45/21 43/56/21 
f 58/57/22 57/53/22 60/58/22 61/59/22 
f 62/60/23 63/47/23 64/48/23 65/61/23 
f 66/62/24 52/48/24 50/46/24 59/63/24 
f 44/64/25 54/50/25 53/49/25 45/65/25 
f 67/66/26 68/67/26 56/52/26 55/68/26 
f 69/69/27 70/70/27 71/71/27 72/72/27 
f 73/73/28 74/74/28 75/75/28 76/76/28 
f 74/74/29 70/70/29 69/69/29 75/75/29 
f 75/77/30 69/69/30 72/72/30 76/78/30 
f 76/79/31 72/72/31 71/71/31 73/80/31 
f 73/81/24 71/71/24 70/70/24 74/82/24 
f 18/83/32 17/84/32 8/85/32 77/86/32 
f 18/83/33 77/86/33 78/87/33 31/88/33 
f 30/30/34 31/89/34 78/90/34 32/91/34 
f 15/13/35 30/30/35 32/91/35 11/92/35 
f 15/13/36 11/92/36 10/93/36 16/14/36 
f 20/21/37 16/14/37 10/93/37 13/94/37 
f 21/95/38 20/21/38 13/94/38 5/96/38 
f 21/97/39 5/98/39 8/85/39 17/84/39 
f 58/99/40 79/100/40 46/101/40 55/102/40 
f 67/103/41 55/102/41 46/101/41 45/104/41 
f 67/105/42 45/106/42 53/107/42 68/67/42 
f 68/67/43 53/107/43 48/108/43 56/52/43 
f 57/53/44 56/52/44 48/108/44 47/109/44 
f 57/53/45 47/109/45 51/110/45 60/58/45 
f 60/58/46 51/110/46 80/111/46 61/112/46 
f 58/99/47 61/113/47 80/114/47 79/100/47 
f 32/26/48 78/27/48 25/27/48 24/26/48 
f 78/27/49 34/24/49 22/24/49 25/27/49 
f 33/25/50 32/26/50 24/26/50 23/25/50 
f 66/61/51 80/60/51 62/60/51 65/61/51 
f 80/60/52 51/47/52 63/47/52 62/60/52 
f 51/47/53 52/48/53 64/48/53 63/47/53 
s 1
f 52/21/54 33/25/55 23/49/56 64/61/57 
s 2
f 66/13/58 34/115/59 33/25/60 52/21/61 
s 1
f 65/63/62 22/47/63 34/115/64 66/13/65 
s 2
f 81/61/66 82/49/67 83/47/68 84/63/69 
s off
f 7/115/70 6/116/70 44/116/70 43/115/70 
f 6/116/25 14/12/25 54/12/25 44/116/25 
f 14/12/71 9/7/71 49/7/71 54/12/71 
f 9/7/72 7/115/72 43/115/72 49/7/72 
f 19/3/1 77/4/1 85/4/1 86/3/1 
f 77/4/1 8/1/1 87/1/1 85/4/1 
f 8/1/1 7/2/1 88/2/1 87/1/1 
f 7/2/1 19/3/1 86/3/1 88/2/1 
f 34/28/73 78/29/73 89/29/73 90/28/73 
f 78/29/74 77/4/74 91/4/74 89/29/74 
f 77/4/75 19/3/75 92/3/75 91/4/75 
f 19/3/76 34/28/76 90/28/76 92/3/76 
f 59/37/77 43/38/77 93/38/77 94/37/77 
f 43/38/78 46/35/78 95/35/78 93/38/78 
f 46/35/79 79/36/79 96/36/79 95/35/79 
f 79/36/80 59/37/80 94/37/80 96/36/80 
f 80/39/81 66/40/81 97/40/81 98/39/81 
f 66/40/82 59/37/82 99/37/82 97/40/82 
f 59/37/83 79/36/83 100/36/83 99/37/83 
f 79/36/84 80/39/84 98/39/84 100/36/84 
f 86/3/85 85/4/85 101/4/85 102/3/85 
f 85/4/86 87/1/86 103/1/86 101/4/86 
f 87/1/87 88/2/87 104/2/87 103/1/87 
f 88/2/88 86/3/88 102/3/88 104/2/88 
f 90/28/89 89/29/89 105/29/89 106/28/89 
f 89/29/90 91/4/90 107/4/90 105/29/90 
f 91/4/91 92/3/91 108/3/91 107/4/91 
f 92/3/92 90/28/92 106/28/92 108/3/92 
f 94/37/93 93/38/93 109/38/93 110/37/93 
f 93/38/94 95/35/94 111/35/94 109/38/94 
f 95/35/95 96/36/95 112/36/95 111/35/95 
f 96/36/96 94/37/96 110/37/96 112/36/96 
f 98/39/97 97/40/97 113/40/97 114/39/97 
f 97/40/98 99/37/98 115/37/98 113/40/98 
f 99/37/99 100/36/99 116/36/99 115/37/99 
f 100/36/100 98/39/100 114/39/100 116/36/100 
f 102/3/101 101/4/101 4/4/101 3/3/101 
f 101/4/102 103/1/102 1/1/102 4/4/102 
f 103/1/103 104/2/103 2/2/103 1/1/103 
f 104/2/104 102/3/104 3/3/104 2/2/104 
f 106/28/105 105/29/105 29/29/105 28/28/105 
f 105/29/106 107/4/106 26/4/106 29/29/106 
f 107/4/107 108/3/107 27/3/107 26/4/107 
f 108/3/108 106/28/108 28/28/108 27/3/108 
f 110/37/109 109/38/109 38/38/109 37/37/109 
f 109/38/110 111/35/110 35/35/110 38/38/110 
f 111/35/111 112/36/111 36/36/111 35/35/111 
f 112/36/112 110/37/112 37/37/112 36/36/112 
f 114/39/113 113/40/113 42/40/113 41/39/113 
f 113/40/114 115/37/114 39/37/114 42/40/114 
f 115/37/115 116/36/115 40/36/115 39/37/115 
f 116/36/116 114/39/116 41/39/116 40/36/116 
f 23/49/117 22/47/117 83/47/117 82/49/117 
f 22/47/118 65/63/118 84/63/118 83/47/118 
f 65/63/119 64/61/119 81/61/119 84/63/119 
f 64/61/120 23/49/120 82/49/120 81/61/120 
# 114 polygons

