# 3ds Max Wavefront OBJ Exporter v0.97b - (c)2007 guruware
# File Created: 09.05.2019 18:00:22

mtllib Stoyanka 1.mtl

#
# object Stoyanka
#

v  15.9034 0.1770 15.7892
v  -15.3630 0.1770 15.7930
v  -15.3704 0.1770 -15.8039
v  15.8998 0.1770 -15.8077
v  -22.1195 0.1853 -5.9976
v  -22.1195 0.1853 5.9948
v  -22.1195 0.3400 5.9948
v  -22.1195 0.3400 -5.9976
v  3.9568 6.5565 8.5915
v  -15.3630 2.3928 15.7930
v  15.9034 2.3928 15.7892
v  11.9234 4.7205 11.7655
v  -3.4094 6.5565 8.5915
v  -11.3770 4.7217 11.7651
v  8.7839 6.5565 -3.7636
v  15.8998 2.3928 -15.8077
v  11.9188 4.7223 -11.7702
v  8.7839 6.5565 3.7644
v  -3.4094 6.5565 -8.5907
v  -15.3704 2.3928 -15.8039
v  -11.3767 4.7238 -11.7658
v  3.9568 6.5565 -8.5907
v  -8.2365 6.5565 3.7644
v  -8.2365 6.5565 -3.7636
v  2.9980 28.1961 7.6235
v  -2.4505 28.1961 7.6235
v  7.8251 28.1961 -2.7956
v  7.8251 28.1961 2.7964
v  -2.4505 28.1961 -7.6227
v  2.9980 28.1961 -7.6227
v  -7.2776 28.1961 2.7964
v  -7.2776 28.1961 -2.7956
v  7.4405 28.2251 9.2080
v  9.8648 36.5305 12.9252
v  -9.3174 36.5305 12.9252
v  -6.8930 28.2251 9.2080
v  9.3911 28.2251 -7.2678
v  13.0553 36.5305 -9.7339
v  13.0553 36.5305 9.7347
v  9.3911 28.2251 7.2686
v  -6.8930 28.2251 -9.2072
v  -9.3174 36.5305 -12.9244
v  9.8648 36.5305 -12.9244
v  7.4405 28.2251 -9.2072
v  -8.8437 28.2251 7.2686
v  -12.5079 36.5305 9.7347
v  -12.5079 36.5305 -9.7339
v  -8.8437 28.2251 -7.2678
v  -9.3174 38.3246 12.9252
v  9.8648 38.3246 12.9252
v  13.0553 38.3246 9.7347
v  13.0553 38.3246 -9.7339
v  9.8648 38.3246 -12.9244
v  -9.3174 38.3246 -12.9244
v  -12.5079 38.3246 -9.7339
v  -12.5079 38.3246 9.7347
v  -3.7802 38.3246 7.3260
v  4.3277 38.3246 7.3260
v  7.5182 38.3246 4.1355
v  7.5182 38.3246 -4.1347
v  4.3277 38.3246 -7.3252
v  -3.7802 38.3246 -7.3252
v  -6.9708 38.3246 -4.1347
v  -6.9708 38.3246 4.1355
v  -15.3737 0.2590 -6.3600
v  -15.3737 0.2590 6.3571
v  -15.3737 2.2042 6.3571
v  -15.3737 2.2042 -6.3600
v  -19.4269 0.2222 6.1760
v  -19.4269 0.2222 -6.1788
v  -19.4269 1.3261 6.1760
v  -19.4269 1.3261 -6.1788
v  -5.5638 0.1853 22.5485
v  6.4286 0.1853 22.5485
v  6.4286 0.3400 22.5485
v  -5.5638 0.3400 22.5485
v  -5.9261 0.2590 15.8028
v  6.7910 0.2590 15.8028
v  6.7910 2.1728 15.8028
v  -5.9261 2.1728 15.8028
v  6.6098 0.2222 19.1757
v  -5.7450 0.2222 19.1757
v  6.6098 1.3375 19.1757
v  -5.7450 1.3375 19.1757
v  22.6589 0.1853 5.9969
v  22.6589 0.1853 -5.9954
v  22.6589 0.3400 -5.9954
v  22.6589 0.3400 5.9969
v  15.9131 0.2590 6.3593
v  15.9131 0.2590 -6.3578
v  15.9131 2.1728 -6.3578
v  15.9131 2.1728 6.3593
v  19.2860 0.2222 -6.1766
v  19.2860 0.2222 6.1781
v  19.2860 1.3375 -6.1766
v  19.2860 1.3375 6.1781
v  6.1000 0.1853 -22.5811
v  -5.8924 0.1853 -22.5811
v  -5.8924 0.3400 -22.5811
v  6.1000 0.3400 -22.5811
v  6.4624 0.2590 -15.8353
v  -6.2548 0.2590 -15.8353
v  -6.2548 2.1728 -15.8353
v  6.4624 2.1728 -15.8353
v  -6.0736 0.2222 -19.2082
v  6.2812 0.2222 -19.2082
v  -6.0736 1.3375 -19.2082
v  6.2812 1.3375 -19.2082
# 108 vertices

vn 0.0000 -1.0000 -0.0000
vn -1.0000 0.0000 -0.0000
vn 0.0493 0.9131 0.4043
vn -0.2684 0.9249 0.2692
vn 0.2685 0.9246 0.2692
vn 0.2557 0.9329 0.2532
vn -0.0493 0.9133 0.4043
vn -0.2554 0.9329 0.2532
vn 0.4080 0.9116 -0.0490
vn 0.2681 0.9250 -0.2692
vn 0.2558 0.9331 -0.2529
vn 0.4080 0.9117 0.0490
vn -0.0493 0.9136 -0.4036
vn -0.2681 0.9251 -0.2687
vn -0.2551 0.9332 -0.2529
vn 0.0493 0.9136 -0.4034
vn -0.4074 0.9119 0.0492
vn -0.4072 0.9120 -0.0489
vn 0.0000 0.0446 0.9989
vn 0.9989 0.0443 -0.0000
vn 0.0000 0.0446 -0.9989
vn -0.9989 0.0443 -0.0000
vn -0.1401 -0.4466 0.8835
vn -0.0335 -0.2143 0.9762
vn 0.0578 -0.4902 0.8696
vn 0.0000 -0.9998 0.0182
vn 0.0422 -0.2261 0.9730
vn 0.3177 -0.3085 0.8965
vn 0.8865 -0.4422 0.1367
vn 0.9768 -0.2109 0.0329
vn 0.8727 -0.4846 -0.0572
vn 0.0184 -0.9998 -0.0000
vn 0.9738 -0.2227 -0.0417
vn 0.8997 -0.3039 -0.3131
vn 0.1401 -0.4466 -0.8835
vn 0.0335 -0.2143 -0.9762
vn -0.0578 -0.4902 -0.8696
vn 0.0000 -0.9998 -0.0182
vn -0.0422 -0.2261 -0.9730
vn -0.3177 -0.3085 -0.8965
vn -0.8865 -0.4422 -0.1367
vn -0.9768 -0.2109 -0.0329
vn -0.8727 -0.4846 0.0572
vn -0.0184 -0.9998 -0.0000
vn -0.9738 -0.2227 0.0417
vn -0.8997 -0.3039 0.3131
vn 0.0000 0.0000 1.0000
vn 1.0000 0.0000 -0.0000
vn 0.0000 0.0000 -1.0000
vn 0.0000 1.0000 -0.0000
vn -0.9996 -0.0265 -0.0000
vn -1.0000 -0.0003 -0.0002
vn -1.0000 -0.0005 0.0010
vn -0.9976 -0.0686 0.0003
vn -1.0000 0.0005 0.0010
vn -0.9993 0.0377 0.0003
vn -1.0000 0.0003 -0.0002
vn -0.9998 0.0194 -0.0000
vn 0.0090 -1.0000 -0.0000
vn 0.0111 -0.9999 -0.0000
vn -0.0537 0.0000 0.9984
vn -0.0560 0.0000 0.9982
vn -0.0446 0.0000 0.9989
vn -0.2117 0.9771 -0.0000
vn -0.2761 0.9610 -0.0000
vn -0.0537 0.0000 -0.9984
vn -0.0446 0.0000 -0.9989
vn -0.0560 0.0000 -0.9982
vn -0.0002 -0.0786 0.9968
vn -0.0009 -0.0005 1.0000
vn 0.0013 -0.0007 1.0000
vn 0.0005 -0.1000 0.9949
vn 0.0013 0.0007 1.0000
vn 0.0003 0.0406 0.9992
vn -0.0002 0.0328 0.9995
vn -0.0009 0.0005 1.0000
vn 0.0000 -0.9999 -0.0107
vn 0.9984 0.0000 0.0536
vn 0.0000 0.9707 0.2402
vn 0.0000 0.9650 0.2614
vn 0.9968 -0.0786 0.0002
vn 1.0000 -0.0005 0.0009
vn 1.0000 -0.0006 -0.0012
vn 0.9949 -0.0986 -0.0005
vn 1.0000 0.0006 -0.0012
vn 0.9992 0.0400 -0.0003
vn 1.0000 0.0005 0.0009
vn 0.9995 0.0325 0.0002
vn -0.0107 -0.9999 -0.0000
vn 0.0536 0.0000 -0.9984
vn 0.2402 0.9707 -0.0000
vn 0.2614 0.9650 -0.0000
vn 0.0536 0.0000 0.9984
vn 0.0009 -0.2143 -0.9766
vn 0.0027 -0.0017 -1.0000
vn -0.0033 -0.0019 -1.0000
vn -0.0010 -0.2334 -0.9724
vn -0.0033 0.0019 -1.0000
vn -0.0010 0.0935 -0.9956
vn 0.0007 0.0859 -0.9962
vn 0.0027 0.0017 -1.0000
vn 0.0000 -0.9999 0.0107
vn -0.9984 0.0000 -0.0536
vn 0.0000 0.9707 -0.2402
vn 0.0000 0.9650 -0.2614
vn 0.0136 -0.9999 -0.0000
vn -0.0671 0.0000 0.9977
vn -0.3437 0.9390 -0.0000
vn -0.0671 0.0000 -0.9977
vn 0.9984 0.0000 -0.0536
vn -0.9984 0.0000 0.0536
vn 0.0000 0.9589 0.2835
vn 0.2835 0.9589 -0.0000
vn 0.0000 0.9589 -0.2835
vn -0.0047 -1.0000 0.0047
vn 0.0047 -1.0000 0.0047
vn -0.0047 -1.0000 -0.0047
vn 0.0047 -1.0000 -0.0047
vn -0.7055 0.0627 0.7055
vn 0.7055 0.0627 0.7055
vn 0.7055 0.0627 -0.7055
vn -0.7055 0.0627 -0.7055
vn -0.6879 -0.2311 0.6879
vn -0.6251 -0.4631 0.6277
vn -0.6247 -0.4636 0.6282
vn -0.6878 -0.2305 0.6881
vn 0.6879 -0.2309 0.6879
vn 0.6254 -0.4627 0.6281
vn 0.6250 -0.4625 0.6287
vn 0.6876 -0.2314 0.6879
vn 0.6879 -0.2311 -0.6879
vn 0.6251 -0.4631 -0.6277
vn 0.6247 -0.4636 -0.6282
vn 0.6878 -0.2305 -0.6881
vn -0.6879 -0.2309 -0.6879
vn -0.6254 -0.4627 -0.6281
vn -0.6250 -0.4625 -0.6287
vn -0.6876 -0.2314 -0.6879
vn -0.7070 0.0000 0.7070
vn 0.7070 0.0000 0.7070
vn 0.7070 0.0000 -0.7070
vn -0.7070 0.0000 -0.7070
# 142 vertex normals

vt 0.2556 0.5262 0.0000
vt 0.0198 0.5263 0.0000
vt 0.0198 0.2880 0.0000
vt 0.2556 0.2879 0.0000
vt 0.5332 0.5703 0.0000
vt 0.5609 0.6564 0.0000
vt 0.5598 0.6568 0.0000
vt 0.5320 0.5707 0.0000
vt 0.7961 0.9340 0.0000
vt 0.9437 0.9900 0.0000
vt 0.7057 0.9945 0.0000
vt 0.7371 0.9615 0.0000
vt 0.8498 0.9338 0.0000
vt 0.9109 0.9583 0.0000
vt 0.7611 0.8452 0.0000
vt 0.7011 0.7540 0.0000
vt 0.7338 0.7858 0.0000
vt 0.7613 0.9001 0.0000
vt 0.8485 0.8102 0.0000
vt 0.9391 0.7496 0.0000
vt 0.9076 0.7827 0.0000
vt 0.7949 0.8104 0.0000
vt 0.8836 0.8990 0.0000
vt 0.8833 0.8441 0.0000
vt 0.7428 0.2558 0.0000
vt 0.9029 0.2891 0.0000
vt 0.8963 0.3297 0.0000
vt 0.7339 0.3106 0.0000
vt 0.7673 0.1504 0.0000
vt 0.9238 0.1978 0.0000
vt 0.9134 0.2387 0.0000
vt 0.7533 0.2054 0.0000
vt 0.8006 0.0488 0.0000
vt 0.9524 0.1098 0.0000
vt 0.9387 0.1485 0.0000
vt 0.7822 0.1012 0.0000
vt 0.7279 0.3617 0.0000
vt 0.8903 0.3808 0.0000
vt 0.8873 0.4229 0.0000
vt 0.7238 0.4184 0.0000
vt 0.2844 0.9244 0.0000
vt 0.2800 0.9950 0.0000
vt 0.2133 0.8966 0.0000
vt 0.2525 0.9087 0.0000
vt 0.1418 0.9531 0.0000
vt 0.1781 0.8923 0.0000
vt 0.4103 0.8846 0.0000
vt 0.4509 0.9425 0.0000
vt 0.3365 0.9063 0.0000
vt 0.3757 0.8917 0.0000
vt 0.3137 0.9943 0.0000
vt 0.3061 0.9240 0.0000
vt 0.0865 0.7688 0.0000
vt 0.0171 0.7835 0.0000
vt 0.0946 0.6934 0.0000
vt 0.0932 0.7341 0.0000
vt 0.0217 0.6391 0.0000
vt 0.0894 0.6591 0.0000
vt 0.1601 0.8795 0.0000
vt 0.1145 0.9336 0.0000
vt 0.1186 0.8138 0.0000
vt 0.1435 0.8477 0.0000
vt 0.0273 0.8157 0.0000
vt 0.0929 0.7893 0.0000
vt 0.0010 0.3946 0.0000
vt 0.0145 0.3946 0.0000
vt 0.0145 0.5393 0.0000
vt 0.0010 0.5393 0.0000
vt 0.0010 0.5733 0.0000
vt 0.0145 0.5733 0.0000
vt 0.0145 0.7201 0.0000
vt 0.0010 0.7201 0.0000
vt 0.0010 0.0350 0.0000
vt 0.0145 0.0350 0.0000
vt 0.0145 0.1797 0.0000
vt 0.0010 0.1797 0.0000
vt 0.0010 0.2137 0.0000
vt 0.0145 0.2137 0.0000
vt 0.0145 0.3606 0.0000
vt 0.0010 0.3606 0.0000
vt 0.3911 0.3009 0.0000
vt 0.4328 0.3431 0.0000
vt 0.2882 0.3431 0.0000
vt 0.3299 0.3009 0.0000
vt 0.3059 0.2769 0.0000
vt 0.2641 0.3191 0.0000
vt 0.2641 0.1723 0.0000
vt 0.3059 0.2145 0.0000
vt 0.3299 0.1904 0.0000
vt 0.2882 0.1482 0.0000
vt 0.4328 0.1482 0.0000
vt 0.3911 0.1904 0.0000
vt 0.4151 0.2145 0.0000
vt 0.4569 0.1722 0.0000
vt 0.4569 0.3191 0.0000
vt 0.4151 0.2768 0.0000
vt 0.0192 0.3592 0.0000
vt 0.0192 0.4551 0.0000
vt 0.0171 0.8528 0.0000
vt 0.0177 0.9240 0.0000
vt 0.0010 0.9240 0.0000
vt 0.0024 0.8528 0.0000
vt 0.9439 0.9177 0.0000
vt 0.9421 0.8218 0.0000
vt 0.0236 0.9958 0.0000
vt 0.0222 0.9246 0.0000
vt 0.0389 0.9246 0.0000
vt 0.0383 0.9958 0.0000
vt 0.5807 0.5521 0.0000
vt 0.6102 0.6434 0.0000
vt 0.5807 0.6515 0.0000
vt 0.5521 0.5628 0.0000
vt 0.5829 0.6595 0.0000
vt 0.6141 0.6575 0.0000
vt 0.5103 0.6756 0.0000
vt 0.4808 0.5843 0.0000
vt 0.5110 0.5760 0.0000
vt 0.5397 0.6647 0.0000
vt 0.5492 0.5550 0.0000
vt 0.5757 0.5383 0.0000
vt 0.0364 0.1388 0.0000
vt 0.1269 0.1386 0.0000
vt 0.1269 0.1398 0.0000
vt 0.0364 0.1400 0.0000
vt 0.0910 0.5269 0.0000
vt 0.1869 0.5269 0.0000
vt 0.4784 0.2608 0.0000
vt 0.4778 0.1921 0.0000
vt 0.4945 0.1921 0.0000
vt 0.4929 0.2608 0.0000
vt 0.8714 0.9932 0.0000
vt 0.7756 0.9950 0.0000
vt 0.0027 0.9952 0.0000
vt 0.0171 0.9952 0.0000
vt 0.0336 0.0880 0.0000
vt 0.1295 0.0877 0.0000
vt 0.1282 0.1131 0.0000
vt 0.0350 0.1134 0.0000
vt 0.1366 0.1135 0.0000
vt 0.1439 0.0883 0.0000
vt 0.1297 0.1925 0.0000
vt 0.0338 0.1927 0.0000
vt 0.0351 0.1665 0.0000
vt 0.1283 0.1663 0.0000
vt 0.2820 0.7395 0.0000
vt 0.2817 0.6491 0.0000
vt 0.2829 0.6491 0.0000
vt 0.2832 0.7395 0.0000
vt 0.2562 0.4551 0.0000
vt 0.2562 0.3592 0.0000
vt 0.9794 0.2543 0.0000
vt 0.9788 0.1831 0.0000
vt 0.9955 0.1831 0.0000
vt 0.9939 0.2543 0.0000
vt 0.7006 0.8265 0.0000
vt 0.7025 0.9223 0.0000
vt 0.4929 0.1210 0.0000
vt 0.4784 0.1210 0.0000
vt 0.2311 0.7424 0.0000
vt 0.2308 0.6465 0.0000
vt 0.2563 0.6478 0.0000
vt 0.2566 0.7409 0.0000
vt 0.2566 0.6394 0.0000
vt 0.2314 0.6321 0.0000
vt 0.3356 0.6462 0.0000
vt 0.3359 0.7421 0.0000
vt 0.3097 0.7408 0.0000
vt 0.3094 0.6476 0.0000
vt 0.2570 0.7494 0.0000
vt 0.2318 0.7568 0.0000
vt 0.5969 0.4209 0.0000
vt 0.5065 0.4219 0.0000
vt 0.5065 0.4207 0.0000
vt 0.5969 0.4197 0.0000
vt 0.1844 0.2873 0.0000
vt 0.0885 0.2873 0.0000
vt 0.0383 0.8559 0.0000
vt 0.0239 0.8558 0.0000
vt 0.7733 0.7508 0.0000
vt 0.8692 0.7490 0.0000
vt 0.9939 0.1119 0.0000
vt 0.9794 0.1119 0.0000
vt 0.6003 0.4717 0.0000
vt 0.5043 0.4728 0.0000
vt 0.5054 0.4474 0.0000
vt 0.5986 0.4463 0.0000
vt 0.4970 0.4471 0.0000
vt 0.4899 0.4724 0.0000
vt 0.5031 0.3680 0.0000
vt 0.5990 0.3669 0.0000
vt 0.5980 0.3932 0.0000
vt 0.5048 0.3942 0.0000
vt 0.5612 0.6575 0.0000
vt 0.5327 0.5692 0.0000
vt 0.5981 0.4208 0.0000
vt 0.6070 0.4458 0.0000
vt 0.0353 0.1389 0.0000
vt 0.0266 0.1138 0.0000
vt 0.1281 0.1386 0.0000
vt 0.2818 0.6479 0.0000
vt 0.2821 0.7407 0.0000
vt 0.5053 0.4219 0.0000
vt 0.6147 0.4709 0.0000
vt 0.0192 0.0886 0.0000
vt 0.9265 0.3486 0.0000
vt 0.9241 0.3692 0.0000
vt 0.9418 0.2605 0.0000
vt 0.9375 0.2807 0.0000
vt 0.9716 0.0620 0.0000
vt 0.9957 0.0884 0.0000
vt 0.9879 0.1076 0.0000
vt 0.9651 0.1724 0.0000
vt 0.9591 0.1923 0.0000
vt 0.8198 0.0010 0.0000
vt 0.4261 0.8711 0.0000
vt 0.4770 0.9207 0.0000
vt 0.0010 0.0010 0.0000
vt 0.0145 0.0010 0.0000
# 218 texture coords

g Stoyanka
usemtl 0_wire_086086086
s off
f 1/1/1 2/2/1 3/3/1 4/4/1 
f 5/5/2 6/6/2 7/7/2 8/8/2 
f 9/9/3 10/10/4 11/11/5 12/12/6 
f 10/10/4 9/9/3 13/13/7 14/14/8 
f 15/15/9 11/11/5 16/16/10 17/17/11 
f 11/11/5 15/15/9 18/18/12 12/12/6 
f 19/19/13 16/16/10 20/20/14 21/21/15 
f 16/16/10 19/19/13 22/22/16 17/17/11 
f 23/23/17 20/20/14 10/10/4 14/14/8 
f 20/20/14 23/23/17 24/24/18 21/21/15 
f 9/25/19 25/26/19 26/27/19 13/28/19 
f 15/29/20 27/30/20 28/31/20 18/32/20 
f 19/33/21 29/34/21 30/35/21 22/36/21 
f 23/37/22 31/38/22 32/39/22 24/40/22 
f 33/41/23 34/42/24 26/43/25 25/44/26 
f 35/45/27 36/46/28 26/43/25 34/42/24 
f 37/47/29 38/48/30 28/49/31 27/50/32 
f 39/51/33 40/52/34 28/49/31 38/48/30 
f 41/53/35 42/54/36 30/55/37 29/56/38 
f 43/57/39 44/58/40 30/55/37 42/54/36 
f 45/59/41 46/60/42 32/61/43 31/62/44 
f 47/63/45 48/64/46 32/61/43 46/60/42 
f 49/65/47 35/66/27 34/67/24 50/68/47 
f 51/69/48 39/70/33 38/71/30 52/72/48 
f 53/73/49 43/74/39 42/75/36 54/76/49 
f 55/77/2 47/78/45 46/79/42 56/80/2 
f 57/81/50 49/82/50 50/83/50 58/84/50 
f 59/85/50 51/86/50 52/87/50 60/88/50 
f 61/89/50 53/90/50 54/91/50 62/92/50 
f 63/93/50 55/94/50 56/95/50 64/96/50 
f 65/97/51 3/3/52 2/2/53 66/98/54 
f 66/99/54 2/100/53 10/101/55 67/102/56 
f 67/103/56 10/10/55 20/20/57 68/104/58 
f 68/105/58 20/106/57 3/107/52 65/108/51 
f 65/109/59 66/110/59 69/111/60 70/112/60 
f 71/113/61 69/111/62 66/110/63 67/114/63 
f 67/115/64 68/116/64 72/117/65 71/118/65 
f 72/119/66 68/120/67 65/109/67 70/112/68 
f 73/121/47 74/122/47 75/123/47 76/124/47 
f 77/125/69 2/2/70 1/1/71 78/126/72 
f 78/127/72 1/128/71 11/129/73 79/130/74 
f 80/131/75 79/132/74 11/11/73 10/10/76 
f 80/133/75 10/101/76 2/100/70 77/134/69 
f 77/135/77 78/136/77 81/137/77 82/138/77 
f 83/139/78 81/137/78 78/136/78 79/140/78 
f 79/141/79 80/142/79 84/143/80 83/144/80 
f 85/145/48 86/146/48 87/147/48 88/148/48 
f 89/149/81 1/1/82 4/4/83 90/150/84 
f 90/151/84 4/152/83 16/153/85 91/154/86 
f 91/155/86 16/16/85 11/11/87 92/156/88 
f 92/157/88 11/129/87 1/128/82 89/158/81 
f 89/159/89 90/160/89 93/161/89 94/162/89 
f 95/163/90 93/161/90 90/160/90 91/164/90 
f 91/165/91 92/166/91 96/167/92 95/168/92 
f 96/169/93 92/170/93 89/159/93 94/162/93 
f 97/171/49 98/172/49 99/173/49 100/174/49 
f 101/175/94 4/4/95 3/3/96 102/176/97 
f 102/177/97 3/107/96 20/106/98 103/178/99 
f 104/179/100 103/180/99 20/20/98 16/16/101 
f 104/181/100 16/153/101 4/152/95 101/182/94 
f 101/183/102 102/184/102 105/185/102 106/186/102 
f 107/187/103 105/185/103 102/184/103 103/188/103 
f 103/189/104 104/190/104 108/191/105 107/192/105 
f 69/111/60 6/6/106 5/5/106 70/112/60 
f 69/111/62 71/113/61 7/193/107 6/6/107 
f 72/117/65 8/8/108 7/7/108 71/118/65 
f 8/194/109 72/119/66 70/112/68 5/5/109 
f 106/186/110 97/171/110 100/195/110 108/196/110 
f 82/138/111 73/121/111 76/197/111 84/198/111 
f 81/137/77 74/122/77 73/121/77 82/138/77 
f 81/137/78 83/139/78 75/199/78 74/122/78 
f 84/143/80 76/124/112 75/123/112 83/144/80 
f 93/161/89 86/146/89 85/145/89 94/162/89 
f 93/161/90 95/163/90 87/200/90 86/146/90 
f 96/167/92 88/148/113 87/147/113 95/168/92 
f 88/201/93 96/169/93 94/162/93 85/145/93 
f 105/185/102 98/172/102 97/171/102 106/186/102 
f 105/185/103 107/187/103 99/202/103 98/172/103 
f 108/191/105 100/174/114 99/173/114 107/192/105 
f 101/183/110 106/186/110 108/196/110 104/203/110 
f 77/135/111 82/138/111 84/198/111 80/204/111 
f 31/38/115 26/27/115 36/205/115 45/206/115 
f 25/26/116 28/31/116 40/207/116 33/208/116 
f 29/34/117 32/209/117 48/210/117 41/211/117 
f 27/30/118 30/35/118 44/212/118 37/213/118 
f 23/23/17 14/14/8 13/13/7 
f 9/9/3 12/12/6 18/18/12 
f 15/15/9 17/17/11 22/22/16 
f 19/19/13 21/21/15 24/24/18 
f 13/28/119 26/27/119 31/38/119 23/37/119 
f 25/26/120 9/25/120 18/32/120 28/31/120 
f 27/30/121 15/29/121 22/36/121 30/35/121 
f 29/34/122 19/33/122 24/214/122 32/209/122 
f 46/60/123 45/59/124 36/46/125 35/45/126 
f 34/42/127 33/41/128 40/52/129 39/51/130 
f 38/48/131 37/47/132 44/215/133 43/216/134 
f 42/54/135 41/53/136 48/64/137 47/63/138 
f 56/80/139 46/79/123 35/66/126 49/65/139 
f 50/68/140 34/67/127 39/70/130 51/69/140 
f 52/217/141 38/218/131 43/74/134 53/73/141 
f 54/76/142 42/75/135 47/78/138 55/77/142 
f 64/96/50 56/95/50 49/82/50 57/81/50 
f 58/84/50 50/83/50 51/86/50 59/85/50 
f 60/88/50 52/87/50 53/90/50 61/89/50 
f 62/92/50 54/91/50 55/94/50 63/93/50 
# 101 polygons - 4 triangles

