# 3ds Max Wavefront OBJ Exporter v0.97b - (c)2007 guruware
# File Created: 09.05.2019 18:00:37

mtllib Stoyanka 2.mtl

#
# object Stoyanka_2
#

v  15.9034 0.1770 15.7892
v  -15.3630 0.1770 15.7930
v  -15.3704 0.1770 -15.8039
v  15.8998 0.1770 -15.8077
v  -22.1195 0.1853 -5.9976
v  -22.1195 0.1853 5.9948
v  -22.1195 0.3400 5.9948
v  -22.1195 0.3400 -5.9976
v  3.9568 6.5565 8.5915
v  -15.3630 2.3928 15.7930
v  15.9034 2.3928 15.7892
v  11.9234 4.7205 11.7655
v  -3.4094 6.5565 8.5915
v  -11.3770 4.7217 11.7651
v  8.7839 6.5565 -3.7636
v  15.8998 2.3928 -15.8077
v  11.9188 4.7223 -11.7702
v  8.7839 6.5565 3.7644
v  -3.4094 6.5565 -8.5907
v  -15.3704 2.3928 -15.8039
v  -11.3767 4.7238 -11.7658
v  3.9568 6.5565 -8.5907
v  -8.2365 6.5565 3.7644
v  -8.2365 6.5565 -3.7636
v  3.9568 4.3470 14.6355
v  2.9980 25.9866 13.6675
v  -2.4505 25.9866 13.6675
v  -3.4094 4.3470 14.6355
v  14.8280 4.3444 -3.7636
v  13.8692 25.9840 -2.7956
v  13.8692 25.9840 2.7964
v  14.8280 4.3444 3.7644
v  -3.4094 4.3470 -14.6347
v  -2.4505 25.9866 -13.6667
v  2.9980 25.9866 -13.6667
v  3.9568 4.3470 -14.6347
v  -14.2806 4.3444 3.7644
v  -13.3217 25.9840 2.7964
v  -13.3217 25.9840 -2.7956
v  -14.2806 4.3444 -3.7636
v  7.4405 27.8703 10.7615
v  9.8648 36.1758 14.4787
v  -2.4505 27.8414 9.1770
v  2.9980 27.8414 9.1770
v  -9.3174 36.1758 14.4787
v  -6.8930 27.8703 10.7615
v  10.9495 27.8791 -7.2678
v  14.6137 36.1845 -9.7339
v  9.3835 27.8501 2.7964
v  9.3835 27.8501 -2.7956
v  14.6137 36.1845 9.7347
v  10.9495 27.8791 7.2686
v  -6.8930 27.8703 -10.7607
v  -9.3174 36.1758 -14.4779
v  2.9980 27.8414 -9.1762
v  -2.4505 27.8414 -9.1762
v  9.8648 36.1758 -14.4779
v  7.4405 27.8703 -10.7607
v  -10.4021 27.8791 7.2686
v  -14.0663 36.1845 9.7347
v  -8.8360 27.8501 -2.7956
v  -8.8360 27.8501 2.7964
v  -14.0663 36.1845 -9.7339
v  -10.4021 27.8791 -7.2678
v  -9.3174 38.3246 12.9252
v  -9.3174 36.5305 12.9252
v  9.8648 36.5305 12.9252
v  9.8648 38.3246 12.9252
v  13.0553 38.3246 9.7347
v  13.0553 36.5305 9.7347
v  13.0553 36.5305 -9.7339
v  13.0553 38.3246 -9.7339
v  9.8648 38.3246 -12.9244
v  9.8648 36.5305 -12.9244
v  -9.3174 36.5305 -12.9244
v  -9.3174 38.3246 -12.9244
v  -12.5079 38.3246 -9.7339
v  -12.5079 36.5305 -9.7339
v  -12.5079 36.5305 9.7347
v  -12.5079 38.3246 9.7347
v  -3.7802 38.3246 7.3260
v  4.3277 38.3246 7.3260
v  7.5182 38.3246 4.1355
v  7.5182 38.3246 -4.1347
v  4.3277 38.3246 -7.3252
v  -3.7802 38.3246 -7.3252
v  -6.9708 38.3246 -4.1347
v  -6.9708 38.3246 4.1355
v  -15.3737 0.2590 -6.3600
v  -15.3737 0.2590 6.3571
v  -15.3737 2.2042 6.3571
v  -15.3737 2.2042 -6.3600
v  -19.4269 0.2222 6.1760
v  -19.4269 0.2222 -6.1788
v  -19.4269 1.3261 6.1760
v  -19.4269 1.3261 -6.1788
v  -5.5638 0.1853 22.5485
v  6.4286 0.1853 22.5485
v  6.4286 0.3400 22.5485
v  -5.5638 0.3400 22.5485
v  -5.9261 0.2590 15.8028
v  6.7910 0.2590 15.8028
v  6.7910 2.1728 15.8028
v  -5.9261 2.1728 15.8028
v  6.6098 0.2222 19.1757
v  -5.7450 0.2222 19.1757
v  6.6098 1.3375 19.1757
v  -5.7450 1.3375 19.1757
v  22.6589 0.1853 5.9969
v  22.6589 0.1853 -5.9954
v  22.6589 0.3400 -5.9954
v  22.6589 0.3400 5.9969
v  15.9131 0.2590 6.3593
v  15.9131 0.2590 -6.3578
v  15.9131 2.1728 -6.3578
v  15.9131 2.1728 6.3593
v  19.2860 0.2222 -6.1766
v  19.2860 0.2222 6.1781
v  19.2860 1.3375 -6.1766
v  19.2860 1.3375 6.1781
v  6.1000 0.1853 -22.5811
v  -5.8924 0.1853 -22.5811
v  -5.8924 0.3400 -22.5811
v  6.1000 0.3400 -22.5811
v  6.4624 0.2590 -15.8353
v  -6.2548 0.2590 -15.8353
v  -6.2548 2.1728 -15.8353
v  6.4624 2.1728 -15.8353
v  -6.0736 0.2222 -19.2082
v  6.2812 0.2222 -19.2082
v  -6.0736 1.3375 -19.2082
v  6.2812 1.3375 -19.2082
v  -7.2776 28.1961 2.7964
v  -2.4505 28.1961 7.6235
v  -6.8930 28.2251 9.2080
v  -8.8437 28.2251 7.2686
v  2.9980 28.1961 7.6235
v  7.8251 28.1961 2.7964
v  9.3911 28.2251 7.2686
v  7.4405 28.2251 9.2080
v  -2.4505 28.1961 -7.6227
v  -7.2776 28.1961 -2.7956
v  -8.8437 28.2251 -7.2678
v  -6.8930 28.2251 -9.2072
v  7.8251 28.1961 -2.7956
v  2.9980 28.1961 -7.6227
v  7.4405 28.2251 -9.2072
v  9.3911 28.2251 -7.2678
v  -8.4535 7.8742 3.9814
v  -11.5940 6.0394 11.9821
v  -3.6264 7.8742 8.8085
v  4.1740 7.8742 8.8087
v  12.1405 6.0382 11.9827
v  9.0011 7.8742 3.9816
v  9.0008 7.8742 -3.9805
v  12.1357 6.0400 -11.9871
v  4.1737 7.8742 -8.8076
v  -3.6262 7.8743 -8.8075
v  -11.5935 6.0416 -11.9826
v  -8.4532 7.8743 -3.9803
# 160 vertices

vn 0.0000 -1.0000 -0.0000
vn -1.0000 0.0000 -0.0000
vn 0.0493 0.9131 0.4043
vn -0.2684 0.9249 0.2692
vn 0.2685 0.9246 0.2692
vn 0.2557 0.9329 0.2532
vn -0.0493 0.9133 0.4043
vn -0.2554 0.9329 0.2532
vn 0.4080 0.9116 -0.0490
vn 0.2681 0.9250 -0.2692
vn 0.2558 0.9331 -0.2529
vn 0.4080 0.9117 0.0490
vn -0.0493 0.9136 -0.4036
vn -0.2681 0.9251 -0.2687
vn -0.2551 0.9332 -0.2529
vn 0.0493 0.9136 -0.4034
vn -0.4074 0.9119 0.0492
vn -0.4072 0.9120 -0.0489
vn 0.0000 0.0446 0.9989
vn 0.9989 0.0443 -0.0000
vn 0.0000 0.0446 -0.9989
vn -0.9989 0.0443 -0.0000
vn -0.1401 -0.4466 0.8835
vn -0.0335 -0.2143 0.9762
vn 0.0578 -0.4902 0.8696
vn 0.0000 -0.9998 0.0182
vn 0.0422 -0.2261 0.9730
vn 0.3177 -0.3085 0.8965
vn 0.8865 -0.4422 0.1367
vn 0.9768 -0.2109 0.0329
vn 0.8727 -0.4846 -0.0572
vn 0.0184 -0.9998 -0.0000
vn 0.9738 -0.2227 -0.0417
vn 0.8997 -0.3039 -0.3131
vn 0.1401 -0.4466 -0.8835
vn 0.0335 -0.2143 -0.9762
vn -0.0578 -0.4902 -0.8696
vn 0.0000 -0.9998 -0.0182
vn -0.0422 -0.2261 -0.9730
vn -0.3177 -0.3085 -0.8965
vn -0.8865 -0.4422 -0.1367
vn -0.9768 -0.2109 -0.0329
vn -0.8727 -0.4846 0.0572
vn -0.0184 -0.9998 -0.0000
vn -0.9738 -0.2227 0.0417
vn -0.8997 -0.3039 0.3131
vn 0.0000 0.0000 1.0000
vn 1.0000 0.0000 -0.0000
vn 0.0000 0.0000 -1.0000
vn 0.0000 1.0000 -0.0000
vn -0.9996 -0.0265 -0.0000
vn -1.0000 -0.0003 -0.0002
vn -1.0000 -0.0005 0.0010
vn -0.9976 -0.0686 0.0003
vn -1.0000 0.0005 0.0010
vn -0.9993 0.0377 0.0003
vn -1.0000 0.0003 -0.0002
vn -0.9998 0.0194 -0.0000
vn 0.0090 -1.0000 -0.0000
vn 0.0111 -0.9999 -0.0000
vn -0.0537 0.0000 0.9984
vn -0.0560 0.0000 0.9982
vn -0.0446 0.0000 0.9989
vn -0.2117 0.9771 -0.0000
vn -0.2761 0.9610 -0.0000
vn -0.0537 0.0000 -0.9984
vn -0.0446 0.0000 -0.9989
vn -0.0560 0.0000 -0.9982
vn -0.0002 -0.0786 0.9968
vn -0.0009 -0.0005 1.0000
vn 0.0013 -0.0007 1.0000
vn 0.0005 -0.1000 0.9949
vn 0.0013 0.0007 1.0000
vn 0.0003 0.0406 0.9992
vn -0.0002 0.0328 0.9995
vn -0.0009 0.0005 1.0000
vn 0.0000 -0.9999 -0.0107
vn 0.9984 0.0000 0.0536
vn 0.0000 0.9707 0.2402
vn 0.0000 0.9650 0.2614
vn 0.9968 -0.0786 0.0002
vn 1.0000 -0.0005 0.0009
vn 1.0000 -0.0006 -0.0012
vn 0.9949 -0.0986 -0.0005
vn 1.0000 0.0006 -0.0012
vn 0.9992 0.0400 -0.0003
vn 1.0000 0.0005 0.0009
vn 0.9995 0.0325 0.0002
vn -0.0107 -0.9999 -0.0000
vn 0.0536 0.0000 -0.9984
vn 0.2402 0.9707 -0.0000
vn 0.2614 0.9650 -0.0000
vn 0.0536 0.0000 0.9984
vn 0.0009 -0.2143 -0.9766
vn 0.0027 -0.0017 -1.0000
vn -0.0033 -0.0019 -1.0000
vn -0.0010 -0.2334 -0.9724
vn -0.0033 0.0019 -1.0000
vn -0.0010 0.0935 -0.9956
vn 0.0007 0.0859 -0.9962
vn 0.0027 0.0017 -1.0000
vn 0.0000 -0.9999 0.0107
vn -0.9984 0.0000 -0.0536
vn 0.0000 0.9707 -0.2402
vn 0.0000 0.9650 -0.2614
vn 0.0136 -0.9999 -0.0000
vn -0.0671 0.0000 0.9977
vn -0.3437 0.9390 -0.0000
vn -0.0671 0.0000 -0.9977
vn 0.9984 0.0000 -0.0536
vn -0.9984 0.0000 0.0536
vn 0.0000 0.9589 0.2835
vn 0.2835 0.9589 -0.0000
vn 0.0000 0.9589 -0.2835
vn -0.0047 -1.0000 0.0047
vn 0.0047 -1.0000 0.0047
vn -0.0047 -1.0000 -0.0047
vn 0.0047 -1.0000 -0.0047
vn -0.7055 0.0627 0.7055
vn 0.7055 0.0627 0.7055
vn 0.7055 0.0627 -0.7055
vn -0.7055 0.0627 -0.7055
vn -0.6879 -0.2311 0.6879
vn -0.6251 -0.4631 0.6277
vn -0.6247 -0.4636 0.6282
vn -0.6878 -0.2305 0.6881
vn 0.6879 -0.2309 0.6879
vn 0.6254 -0.4627 0.6281
vn 0.6250 -0.4625 0.6287
vn 0.6876 -0.2314 0.6879
vn 0.6879 -0.2311 -0.6879
vn 0.6251 -0.4631 -0.6277
vn 0.6247 -0.4636 -0.6282
vn 0.6878 -0.2305 -0.6881
vn -0.6879 -0.2309 -0.6879
vn -0.6254 -0.4627 -0.6281
vn -0.6250 -0.4625 -0.6287
vn -0.6876 -0.2314 -0.6879
vn -0.7070 0.0000 0.7070
vn 0.7070 0.0000 0.7070
vn 0.7070 0.0000 -0.7070
vn -0.7070 0.0000 -0.7070
vn 0.0000 -0.9392 -0.3433
vn 0.9989 0.0450 0.0164
vn 0.0000 0.9392 0.3433
vn -0.9989 0.0450 0.0164
vn -0.3437 -0.9391 -0.0000
vn 0.0166 0.0454 -0.9988
vn 0.3437 0.9391 -0.0000
vn 0.0166 0.0454 0.9988
vn 0.0000 -0.9392 0.3433
vn -0.9989 0.0450 -0.0164
vn 0.0000 0.9392 -0.3433
vn 0.9989 0.0450 -0.0164
vn 0.3437 -0.9391 -0.0000
vn -0.0166 0.0454 0.9988
vn -0.3437 0.9391 -0.0000
vn -0.0166 0.0454 -0.9988
vn 0.0000 -0.9749 -0.2226
vn 0.0854 -0.9713 -0.2218
vn 0.9650 -0.2556 -0.0584
vn 0.0000 0.9749 0.2226
vn -0.9650 -0.2556 -0.0584
vn -0.0854 -0.9713 -0.2218
vn -0.2167 -0.9762 -0.0000
vn -0.2160 -0.9729 -0.0819
vn -0.0579 -0.2606 -0.9637
vn 0.2167 0.9762 -0.0000
vn -0.0579 -0.2606 0.9637
vn -0.2160 -0.9729 0.0819
vn 0.0000 -0.9749 0.2226
vn -0.0854 -0.9713 0.2218
vn -0.9650 -0.2556 0.0584
vn 0.0000 0.9749 -0.2226
vn 0.9650 -0.2556 0.0584
vn 0.0854 -0.9713 0.2218
vn 0.2167 -0.9762 -0.0000
vn 0.2160 -0.9729 0.0820
vn 0.0579 -0.2606 0.9637
vn -0.2167 0.9762 -0.0000
vn 0.0579 -0.2606 -0.9637
vn 0.2160 -0.9729 -0.0820
vn 0.3860 -0.0877 0.9183
vn 0.6887 0.2268 -0.6887
vn -0.9201 -0.0887 -0.3815
vn -0.3861 -0.0877 0.9183
vn 0.9201 -0.0888 -0.3814
vn -0.6887 0.2270 -0.6887
vn 0.9204 -0.0888 0.3807
vn -0.3867 -0.0875 -0.9180
vn -0.6887 0.2268 0.6887
vn 0.3861 -0.0875 -0.9183
vn -0.9202 -0.0886 0.3814
vn 0.6887 0.2266 0.6887
# 194 vertex normals

vt 0.2556 0.5262 0.0000
vt 0.0198 0.5263 0.0000
vt 0.0198 0.2880 0.0000
vt 0.2556 0.2879 0.0000
vt 0.5332 0.5703 0.0000
vt 0.5609 0.6564 0.0000
vt 0.5598 0.6568 0.0000
vt 0.5320 0.5707 0.0000
vt 0.7961 0.9340 0.0000
vt 0.9437 0.9900 0.0000
vt 0.7057 0.9945 0.0000
vt 0.7371 0.9615 0.0000
vt 0.8498 0.9338 0.0000
vt 0.9109 0.9583 0.0000
vt 0.7611 0.8452 0.0000
vt 0.7011 0.7540 0.0000
vt 0.7338 0.7858 0.0000
vt 0.7613 0.9001 0.0000
vt 0.8485 0.8102 0.0000
vt 0.9391 0.7496 0.0000
vt 0.9076 0.7827 0.0000
vt 0.7949 0.8104 0.0000
vt 0.8836 0.8990 0.0000
vt 0.8833 0.8441 0.0000
vt 0.7428 0.2558 0.0000
vt 0.9029 0.2891 0.0000
vt 0.8963 0.3297 0.0000
vt 0.7339 0.3106 0.0000
vt 0.7673 0.1504 0.0000
vt 0.9238 0.1978 0.0000
vt 0.9134 0.2387 0.0000
vt 0.7533 0.2054 0.0000
vt 0.8006 0.0488 0.0000
vt 0.9524 0.1098 0.0000
vt 0.9387 0.1485 0.0000
vt 0.7822 0.1012 0.0000
vt 0.7279 0.3617 0.0000
vt 0.8903 0.3808 0.0000
vt 0.8873 0.4229 0.0000
vt 0.7238 0.4184 0.0000
vt 0.2844 0.9244 0.0000
vt 0.2800 0.9950 0.0000
vt 0.2133 0.8966 0.0000
vt 0.2525 0.9087 0.0000
vt 0.1418 0.9531 0.0000
vt 0.1781 0.8923 0.0000
vt 0.4103 0.8846 0.0000
vt 0.4509 0.9425 0.0000
vt 0.3365 0.9063 0.0000
vt 0.3757 0.8917 0.0000
vt 0.3137 0.9943 0.0000
vt 0.3061 0.9240 0.0000
vt 0.0865 0.7688 0.0000
vt 0.0171 0.7835 0.0000
vt 0.0946 0.6934 0.0000
vt 0.0932 0.7341 0.0000
vt 0.0217 0.6391 0.0000
vt 0.0894 0.6591 0.0000
vt 0.1601 0.8795 0.0000
vt 0.1145 0.9336 0.0000
vt 0.1186 0.8138 0.0000
vt 0.1435 0.8477 0.0000
vt 0.0273 0.8157 0.0000
vt 0.0929 0.7893 0.0000
vt 0.0010 0.3946 0.0000
vt 0.0145 0.3946 0.0000
vt 0.0145 0.5393 0.0000
vt 0.0010 0.5393 0.0000
vt 0.0010 0.5733 0.0000
vt 0.0145 0.5733 0.0000
vt 0.0145 0.7201 0.0000
vt 0.0010 0.7201 0.0000
vt 0.0010 0.0350 0.0000
vt 0.0145 0.0350 0.0000
vt 0.0145 0.1797 0.0000
vt 0.0010 0.1797 0.0000
vt 0.0010 0.2137 0.0000
vt 0.0145 0.2137 0.0000
vt 0.0145 0.3606 0.0000
vt 0.0010 0.3606 0.0000
vt 0.3911 0.3009 0.0000
vt 0.4328 0.3431 0.0000
vt 0.2882 0.3431 0.0000
vt 0.3299 0.3009 0.0000
vt 0.3059 0.2769 0.0000
vt 0.2641 0.3191 0.0000
vt 0.2641 0.1723 0.0000
vt 0.3059 0.2145 0.0000
vt 0.3299 0.1904 0.0000
vt 0.2882 0.1482 0.0000
vt 0.4328 0.1482 0.0000
vt 0.3911 0.1904 0.0000
vt 0.4151 0.2145 0.0000
vt 0.4569 0.1722 0.0000
vt 0.4569 0.3191 0.0000
vt 0.4151 0.2768 0.0000
vt 0.0192 0.3592 0.0000
vt 0.0192 0.4551 0.0000
vt 0.0171 0.8528 0.0000
vt 0.0177 0.9240 0.0000
vt 0.0010 0.9240 0.0000
vt 0.0024 0.8528 0.0000
vt 0.9439 0.9177 0.0000
vt 0.9421 0.8218 0.0000
vt 0.0236 0.9958 0.0000
vt 0.0222 0.9246 0.0000
vt 0.0389 0.9246 0.0000
vt 0.0383 0.9958 0.0000
vt 0.5807 0.5521 0.0000
vt 0.6102 0.6434 0.0000
vt 0.5807 0.6515 0.0000
vt 0.5521 0.5628 0.0000
vt 0.5829 0.6595 0.0000
vt 0.6141 0.6575 0.0000
vt 0.5103 0.6756 0.0000
vt 0.4808 0.5843 0.0000
vt 0.5110 0.5760 0.0000
vt 0.5397 0.6647 0.0000
vt 0.5492 0.5550 0.0000
vt 0.5757 0.5383 0.0000
vt 0.0364 0.1388 0.0000
vt 0.1269 0.1386 0.0000
vt 0.1269 0.1398 0.0000
vt 0.0364 0.1400 0.0000
vt 0.0910 0.5269 0.0000
vt 0.1869 0.5269 0.0000
vt 0.4784 0.2608 0.0000
vt 0.4778 0.1921 0.0000
vt 0.4945 0.1921 0.0000
vt 0.4929 0.2608 0.0000
vt 0.8714 0.9932 0.0000
vt 0.7756 0.9950 0.0000
vt 0.0027 0.9952 0.0000
vt 0.0171 0.9952 0.0000
vt 0.0336 0.0880 0.0000
vt 0.1295 0.0877 0.0000
vt 0.1282 0.1131 0.0000
vt 0.0350 0.1134 0.0000
vt 0.1366 0.1135 0.0000
vt 0.1439 0.0883 0.0000
vt 0.1297 0.1925 0.0000
vt 0.0338 0.1927 0.0000
vt 0.0351 0.1665 0.0000
vt 0.1283 0.1663 0.0000
vt 0.2820 0.7395 0.0000
vt 0.2817 0.6491 0.0000
vt 0.2829 0.6491 0.0000
vt 0.2832 0.7395 0.0000
vt 0.2562 0.4551 0.0000
vt 0.2562 0.3592 0.0000
vt 0.9794 0.2543 0.0000
vt 0.9788 0.1831 0.0000
vt 0.9955 0.1831 0.0000
vt 0.9939 0.2543 0.0000
vt 0.7006 0.8265 0.0000
vt 0.7025 0.9223 0.0000
vt 0.4929 0.1210 0.0000
vt 0.4784 0.1210 0.0000
vt 0.2311 0.7424 0.0000
vt 0.2308 0.6465 0.0000
vt 0.2563 0.6478 0.0000
vt 0.2566 0.7409 0.0000
vt 0.2566 0.6394 0.0000
vt 0.2314 0.6321 0.0000
vt 0.3356 0.6462 0.0000
vt 0.3359 0.7421 0.0000
vt 0.3097 0.7408 0.0000
vt 0.3094 0.6476 0.0000
vt 0.2570 0.7494 0.0000
vt 0.2318 0.7568 0.0000
vt 0.5969 0.4209 0.0000
vt 0.5065 0.4219 0.0000
vt 0.5065 0.4207 0.0000
vt 0.5969 0.4197 0.0000
vt 0.1844 0.2873 0.0000
vt 0.0885 0.2873 0.0000
vt 0.0383 0.8559 0.0000
vt 0.0239 0.8558 0.0000
vt 0.7733 0.7508 0.0000
vt 0.8692 0.7490 0.0000
vt 0.9939 0.1119 0.0000
vt 0.9794 0.1119 0.0000
vt 0.6003 0.4717 0.0000
vt 0.5043 0.4728 0.0000
vt 0.5054 0.4474 0.0000
vt 0.5986 0.4463 0.0000
vt 0.4970 0.4471 0.0000
vt 0.4899 0.4724 0.0000
vt 0.5031 0.3680 0.0000
vt 0.5990 0.3669 0.0000
vt 0.5980 0.3932 0.0000
vt 0.5048 0.3942 0.0000
vt 0.5612 0.6575 0.0000
vt 0.5327 0.5692 0.0000
vt 0.5981 0.4208 0.0000
vt 0.6070 0.4458 0.0000
vt 0.0353 0.1389 0.0000
vt 0.0266 0.1138 0.0000
vt 0.1281 0.1386 0.0000
vt 0.2818 0.6479 0.0000
vt 0.2821 0.7407 0.0000
vt 0.5053 0.4219 0.0000
vt 0.6147 0.4709 0.0000
vt 0.0192 0.0886 0.0000
vt 0.9265 0.3486 0.0000
vt 0.9241 0.3692 0.0000
vt 0.9418 0.2605 0.0000
vt 0.9375 0.2807 0.0000
vt 0.9716 0.0620 0.0000
vt 0.9957 0.0884 0.0000
vt 0.9879 0.1076 0.0000
vt 0.9651 0.1724 0.0000
vt 0.9591 0.1923 0.0000
vt 0.8198 0.0010 0.0000
vt 0.4261 0.8711 0.0000
vt 0.4770 0.9207 0.0000
vt 0.0010 0.0010 0.0000
vt 0.0145 0.0010 0.0000
# 218 texture coords

g Stoyanka_2
usemtl 0_wire_086086086
s off
f 1/1/1 2/2/1 3/3/1 4/4/1 
f 5/5/2 6/6/2 7/7/2 8/8/2 
f 9/9/3 10/10/4 11/11/5 12/12/6 
f 10/10/4 9/9/3 13/13/7 14/14/8 
f 15/15/9 11/11/5 16/16/10 17/17/11 
f 11/11/5 15/15/9 18/18/12 12/12/6 
f 19/19/13 16/16/10 20/20/14 21/21/15 
f 16/16/10 19/19/13 22/22/16 17/17/11 
f 23/23/17 20/20/14 10/10/4 14/14/8 
f 20/20/14 23/23/17 24/24/18 21/21/15 
f 25/25/19 26/26/19 27/27/19 28/28/19 
f 29/29/20 30/30/20 31/31/20 32/32/20 
f 33/33/21 34/34/21 35/35/21 36/36/21 
f 37/37/22 38/38/22 39/39/22 40/40/22 
f 41/41/23 42/42/24 43/43/25 44/44/26 
f 45/45/27 46/46/28 43/43/25 42/42/24 
f 47/47/29 48/48/30 49/49/31 50/50/32 
f 51/51/33 52/52/34 49/49/31 48/48/30 
f 53/53/35 54/54/36 55/55/37 56/56/38 
f 57/57/39 58/58/40 55/55/37 54/54/36 
f 59/59/41 60/60/42 61/61/43 62/62/44 
f 63/63/45 64/64/46 61/61/43 60/60/42 
f 65/65/47 66/66/27 67/67/24 68/68/47 
f 69/69/48 70/70/33 71/71/30 72/72/48 
f 73/73/49 74/74/39 75/75/36 76/76/49 
f 77/77/2 78/78/45 79/79/42 80/80/2 
f 81/81/50 65/82/50 68/83/50 82/84/50 
f 83/85/50 69/86/50 72/87/50 84/88/50 
f 85/89/50 73/90/50 76/91/50 86/92/50 
f 87/93/50 77/94/50 80/95/50 88/96/50 
f 89/97/51 3/3/52 2/2/53 90/98/54 
f 90/99/54 2/100/53 10/101/55 91/102/56 
f 91/103/56 10/10/55 20/20/57 92/104/58 
f 92/105/58 20/106/57 3/107/52 89/108/51 
f 89/109/59 90/110/59 93/111/60 94/112/60 
f 95/113/61 93/111/62 90/110/63 91/114/63 
f 91/115/64 92/116/64 96/117/65 95/118/65 
f 96/119/66 92/120/67 89/109/67 94/112/68 
f 97/121/47 98/122/47 99/123/47 100/124/47 
f 101/125/69 2/2/70 1/1/71 102/126/72 
f 102/127/72 1/128/71 11/129/73 103/130/74 
f 104/131/75 103/132/74 11/11/73 10/10/76 
f 104/133/75 10/101/76 2/100/70 101/134/69 
f 101/135/77 102/136/77 105/137/77 106/138/77 
f 107/139/78 105/137/78 102/136/78 103/140/78 
f 103/141/79 104/142/79 108/143/80 107/144/80 
f 109/145/48 110/146/48 111/147/48 112/148/48 
f 113/149/81 1/1/82 4/4/83 114/150/84 
f 114/151/84 4/152/83 16/153/85 115/154/86 
f 115/155/86 16/16/85 11/11/87 116/156/88 
f 116/157/88 11/129/87 1/128/82 113/158/81 
f 113/159/89 114/160/89 117/161/89 118/162/89 
f 119/163/90 117/161/90 114/160/90 115/164/90 
f 115/165/91 116/166/91 120/167/92 119/168/92 
f 120/169/93 116/170/93 113/159/93 118/162/93 
f 121/171/49 122/172/49 123/173/49 124/174/49 
f 125/175/94 4/4/95 3/3/96 126/176/97 
f 126/177/97 3/107/96 20/106/98 127/178/99 
f 128/179/100 127/180/99 20/20/98 16/16/101 
f 128/181/100 16/153/101 4/152/95 125/182/94 
f 125/183/102 126/184/102 129/185/102 130/186/102 
f 131/187/103 129/185/103 126/184/103 127/188/103 
f 127/189/104 128/190/104 132/191/105 131/192/105 
f 93/111/60 6/6/106 5/5/106 94/112/60 
f 93/111/62 95/113/61 7/193/107 6/6/107 
f 96/117/65 8/8/108 7/7/108 95/118/65 
f 8/194/109 96/119/66 94/112/68 5/5/109 
f 130/186/110 121/171/110 124/195/110 132/196/110 
f 106/138/111 97/121/111 100/197/111 108/198/111 
f 105/137/77 98/122/77 97/121/77 106/138/77 
f 105/137/78 107/139/78 99/199/78 98/122/78 
f 108/143/80 100/124/112 99/123/112 107/144/80 
f 117/161/89 110/146/89 109/145/89 118/162/89 
f 117/161/90 119/163/90 111/200/90 110/146/90 
f 120/167/92 112/148/113 111/147/113 119/168/92 
f 112/201/93 120/169/93 118/162/93 109/145/93 
f 129/185/102 122/172/102 121/171/102 130/186/102 
f 129/185/103 131/187/103 123/202/103 122/172/103 
f 132/191/105 124/174/114 123/173/114 131/192/105 
f 125/183/110 130/186/110 132/196/110 128/203/110 
f 101/135/111 106/138/111 108/198/111 104/204/111 
f 133/38/115 134/27/115 135/205/115 136/206/115 
f 137/26/116 138/31/116 139/207/116 140/208/116 
f 141/34/117 142/209/117 143/210/117 144/211/117 
f 145/30/118 146/35/118 147/212/118 148/213/118 
f 149/23/17 150/14/8 151/13/7 
f 152/9/3 153/12/6 154/18/12 
f 155/15/9 156/17/11 157/22/16 
f 158/19/13 159/21/15 160/24/18 
f 13/28/119 134/27/119 133/38/119 23/37/119 
f 137/26/120 9/25/120 18/32/120 138/31/120 
f 145/30/121 15/29/121 22/36/121 146/35/121 
f 141/34/122 19/33/122 24/214/122 142/209/122 
f 79/60/123 136/59/124 135/46/125 66/45/126 
f 67/42/127 140/41/128 139/52/129 70/51/130 
f 71/48/131 148/47/132 147/215/133 74/216/134 
f 75/54/135 144/53/136 143/64/137 78/63/138 
f 80/80/139 79/79/123 66/66/126 65/65/139 
f 68/68/140 67/67/127 70/70/130 69/69/140 
f 72/217/141 71/218/131 74/74/134 73/73/141 
f 76/76/142 75/75/135 78/78/138 77/77/142 
f 88/96/50 80/95/50 65/82/50 81/81/50 
f 82/84/50 68/83/50 69/86/50 83/85/50 
f 84/88/50 72/87/50 73/90/50 85/89/50 
f 86/92/50 76/91/50 77/94/50 87/93/50 
f 13/28/143 9/25/143 25/25/143 28/28/143 
f 9/25/144 137/26/144 26/26/144 25/25/144 
f 137/26/145 134/27/145 27/27/145 26/26/145 
f 134/27/146 13/28/146 28/28/146 27/27/146 
f 18/32/147 15/29/147 29/29/147 32/32/147 
f 15/29/148 145/30/148 30/30/148 29/29/148 
f 145/30/149 138/31/149 31/31/149 30/30/149 
f 138/31/150 18/32/150 32/32/150 31/31/150 
f 22/36/151 19/33/151 33/33/151 36/36/151 
f 19/33/152 141/34/152 34/34/152 33/33/152 
f 141/34/153 146/35/153 35/35/153 34/34/153 
f 146/35/154 22/36/154 36/36/154 35/35/154 
f 24/40/155 23/37/155 37/37/155 40/40/155 
f 23/37/156 133/38/156 38/38/156 37/37/156 
f 133/38/157 142/39/157 39/39/157 38/38/157 
f 142/39/158 24/40/158 40/40/158 39/39/158 
f 134/43/159 137/44/159 44/44/159 43/43/159 
f 137/44/160 140/41/160 41/41/160 44/44/160 
f 140/41/161 67/42/161 42/42/161 41/41/161 
f 67/42/162 66/45/162 45/45/162 42/42/162 
f 66/45/163 135/46/163 46/46/163 45/45/163 
f 135/46/164 134/43/164 43/43/164 46/46/164 
f 138/49/165 145/50/165 50/50/165 49/49/165 
f 145/50/166 148/47/166 47/47/166 50/50/166 
f 148/47/167 71/48/167 48/48/167 47/47/167 
f 71/48/168 70/51/168 51/51/168 48/48/168 
f 70/51/169 139/52/169 52/52/169 51/51/169 
f 139/52/170 138/49/170 49/49/170 52/52/170 
f 146/55/171 141/56/171 56/56/171 55/55/171 
f 141/56/172 144/53/172 53/53/172 56/56/172 
f 144/53/173 75/54/173 54/54/173 53/53/173 
f 75/54/174 74/57/174 57/57/174 54/54/174 
f 74/57/175 147/58/175 58/58/175 57/57/175 
f 147/58/176 146/55/176 55/55/176 58/58/176 
f 142/61/177 133/62/177 62/62/177 61/61/177 
f 133/62/178 136/59/178 59/59/178 62/62/178 
f 136/59/179 79/60/179 60/60/179 59/59/179 
f 79/60/180 78/63/180 63/63/180 60/60/180 
f 78/63/181 143/64/181 64/64/181 63/63/181 
f 143/64/182 142/61/182 61/61/182 64/64/182 
f 14/14/183 13/13/183 151/13/183 150/14/183 
f 13/13/184 23/23/184 149/23/184 151/13/184 
f 23/23/185 14/14/185 150/14/185 149/23/185 
f 9/9/186 12/12/186 153/12/186 152/9/186 
f 12/12/187 18/18/187 154/18/187 153/12/187 
f 18/18/188 9/9/188 152/9/188 154/18/188 
f 15/15/189 17/17/189 156/17/189 155/15/189 
f 17/17/190 22/22/190 157/22/190 156/17/190 
f 22/22/191 15/15/191 155/15/191 157/22/191 
f 19/19/192 21/21/192 159/21/192 158/19/192 
f 21/21/193 24/24/193 160/24/193 159/21/193 
f 24/24/194 19/19/194 158/19/194 160/24/194 
# 153 polygons - 4 triangles

